$MeshFormat
4.1 0 8
$EndMeshFormat
$Entities
289 289 1 0
0 232.7647058823529 53 -50 0 
1 233.5294117647059 53 -50 0 
2 234.2941176470588 53 -50 0 
3 235.0588235294118 53 -50 0 
4 235.8235294117647 53 -50 0 
5 236.5882352941177 53 -50 0 
6 237.3529411764706 53 -50 0 
7 238.1176470588235 53 -50 0 
8 238.8823529411765 53 -50 0 
9 239.6470588235294 53 -50 0 
10 240.4117647058823 53 -50 0 
11 241.1764705882353 53 -50 0 
12 241.9411764705882 53 -50 0 
13 242.7058823529412 53 -50 0 
14 243.4705882352941 53 -50 0 
15 244.2352941176471 53 -50 0 
16 245 53 -50 0 
17 245 52.29615931578947 -50 0 
18 245 51.59231863157895 -50 0 
19 245 50.88847794736842 -50 0 
20 245 50.1846372631579 -50 0 
21 245 49.48079657894737 -50 0 
22 245 48.77695589473684 -50 0 
23 245 48.07311521052631 -50 0 
24 245 47.36927452631579 -50 0 
25 245 46.66543384210526 -50 0 
26 245 45.96159315789473 -50 0 
27 245 45.25775247368421 -50 0 
28 245 44.55391178947368 -50 0 
29 245 43.85007110526315 -50 0 
30 245 43.14623042105263 -50 0 
31 245 42.4423897368421 -50 0 
32 245 41.73854905263158 -50 0 
33 245 41.03470836842105 -50 0 
34 245 40.33086768421052 -50 0 
35 245 39.627027 -50 0 
36 237.05315 39.627027 -50 0 
37 237.9361333333333 39.627027 -50 0 
38 238.8191166666666 39.627027 -50 0 
39 239.7021 39.627027 -50 0 
40 240.5850833333333 39.627027 -50 0 
41 241.4680666666667 39.627027 -50 0 
42 242.35105 39.627027 -50 0 
43 243.2340333333333 39.627027 -50 0 
44 244.1170166666667 39.627027 -50 0 
45 237.08836 39.685224 -50 0 
46 237.11874 39.73854 -50 0 
47 237.14469 39.787412 -50 0 
48 237.14755 39.793037 -50 0 
49 237.1666 39.832232 -50 0 
50 237.18485 39.873443 -50 0 
51 237.19988 39.91142 -50 0 
52 237.21203 39.946606 -50 0 
53 237.21793 39.965929 -50 0 
54 237.22172 39.979416 -50 0 
55 237.22935 40.010269 -50 0 
56 237.23534 40.039563 -50 0 
57 237.24008 40.067706 -50 0 
58 237.24397 40.095121 -50 0 
59 237.24741 40.122217 -50 0 
60 237.25031 40.145454 -50 0 
61 237.25082 40.14942 -50 0 
62 237.25459 40.177118 -50 0 
63 237.25914 40.205754 -50 0 
64 237.26409 40.241108 -50 0 
65 237.26776 40.282133 -50 0 
66 237.27018 40.326136 -50 0 
67 237.27026 40.328122 -50 0 
68 237.27169 40.378388 -50 0 
69 237.27216 40.432207 -50 0 
70 237.27177 40.4889 -50 0 
71 237.27148 40.507517 -50 0 
72 237.27063 40.547771 -50 0 
73 237.26883 40.608102 -50 0 
74 237.26648 40.66919 -50 0 
75 237.26562 40.688848 -50 0 
76 237.26367 40.730344 -50 0 
77 237.26051 40.790859 -50 0 
78 237.25711 40.850049 -50 0 
79 237.2559 40.870076 -50 0 
80 237.25358 40.907197 -50 0 
81 237.25001 40.961597 -50 0 
82 237.24653 41.012571 -50 0 
83 237.24384 41.051219 -50 0 
84 237.24322 41.059414 -50 0 
85 237.23762 41.128574 -50 0 
86 237.22845 41.231878 -50 0 
87 237.22841 41.232264 -50 0 
88 237.21632 41.365377 -50 0 
89 237.21196 41.413233 -50 0 
90 237.20177 41.525118 -50 0 
91 237.19551 41.594191 -50 0 
92 237.18536 41.707159 -50 0 
93 237.17932 41.775152 -50 0 
94 237.16769 41.907558 -50 0 
95 237.16348 41.956125 -50 0 
96 237.14932 42.122366 -50 0 
97 237.14809 42.137113 -50 0 
98 237.13323 42.318121 -50 0 
99 237.13087 42.347626 -50 0 
100 237.11899 42.499151 -50 0 
101 237.11291 42.579407 -50 0 
102 237.10549 42.680206 -50 0 
103 237.09608 42.813772 -50 0 
104 237.09286 42.86129 -50 0 
105 237.08127 43.042406 -50 0 
106 237.08101 43.046758 -50 0 
107 237.07096 43.223558 -50 0 
108 237.06834 43.274429 -50 0 
109 237.06225 43.404751 -50 0 
110 237.05873 43.492861 -50 0 
111 237.05561 43.585983 -50 0 
112 237.05284 43.698092 -50 0 
113 237.05177 43.767251 -50 0 
114 237.05134 43.886179 -50 0 
115 237.05208 43.94853 -50 0 
116 237.05495 44.053208 -50 0 
117 237.05835 44.129758 -50 0 
118 237.06294 44.210447 -50 0 
119 237.06958 44.310873 -50 0 
120 237.07381 44.367313 -50 0 
121 237.08436 44.491857 -50 0 
122 237.0873 44.523586 -50 0 
123 237.10245 44.672689 -50 0 
124 237.10315 44.679134 -50 0 
125 237.12108 44.833716 -50 0 
126 237.1235 44.853362 -50 0 
127 237.14085 44.987202 -50 0 
128 237.1472 45.033874 -50 0 
129 237.16214 45.139376 -50 0 
130 237.17318 45.214235 -50 0 
131 237.18472 45.290082 -50 0 
132 237.20111 45.394459 -50 0 
133 237.20828 45.439123 -50 0 
134 237.23056 45.574571 -50 0 
135 237.23253 45.586321 -50 0 
136 237.25721 45.731501 -50 0 
137 237.26119 45.754597 -50 0 
138 237.28202 45.874476 -50 0 
139 237.29254 45.934571 -50 0 
140 237.30667 46.015079 -50 0 
141 237.32411 46.114537 -50 0 
142 237.33085 46.153114 -50 0 
143 237.35426 46.288396 -50 0 
144 237.35531 46.294546 -50 0 
145 237.37659 46.420774 -50 0 
146 237.38526 46.474606 -50 0 
147 237.38605 46.479681 -50 0 
148 237.39486 46.538086 -50 0 
149 237.40308 46.595958 -50 0 
150 237.41076 46.653262 -50 0 
151 237.41099 46.655048 -50 0 
152 237.41798 46.709913 -50 0 
153 237.4248 46.765886 -50 0 
154 237.43127 46.82114 -50 0 
155 237.43295 46.835728 -50 0 
156 237.43749 46.875616 -50 0 
157 237.4435 46.929272 -50 0 
158 237.44936 46.982064 -50 0 
159 237.45318 47.016507 -50 0 
160 237.45513 47.033916 -50 0 
161 237.46091 47.084831 -50 0 
162 237.46674 47.134722 -50 0 
163 237.47268 47.183556 -50 0 
164 237.4744 47.197236 -50 0 
165 237.47881 47.231291 -50 0 
166 237.48518 47.277859 -50 0 
167 237.4899 47.309124 -50 0 
168 237.49535 47.34281 -50 0 
169 237.50117 47.377615 -50 0 
170 237.50134 47.378637 -50 0 
171 237.50771 47.416336 -50 0 
172 237.51422 47.455617 -50 0 
173 237.52069 47.496191 -50 0 
174 237.52691 47.53778 -50 0 
175 237.52973 47.557891 -50 0 
176 237.53267 47.580101 -50 0 
177 237.53777 47.622869 -50 0 
178 237.542 47.66581 -50 0 
179 237.54517 47.708628 -50 0 
180 237.54666 47.738809 -50 0 
181 237.54707 47.751062 -50 0 
182 237.54749 47.792804 -50 0 
183 237.54623 47.833584 -50 0 
184 237.54305 47.873129 -50 0 
185 237.53778 47.911143 -50 0 
186 237.53619 47.919821 -50 0 
187 237.52502 47.973401 -50 0 
188 237.50888 48.031957 -50 0 
189 237.48942 48.087093 -50 0 
190 237.48515 48.097691 -50 0 
191 237.46669 48.13908 -50 0 
192 237.44081 48.188201 -50 0 
193 237.41178 48.234732 -50 0 
194 237.38893 48.266866 -50 0 
195 237.3797 48.278964 -50 0 
196 237.34466 48.32116 -50 0 
197 237.30669 48.361599 -50 0 
198 237.26587 48.400587 -50 0 
199 237.24405 48.419937 -50 0 
200 237.22229 48.438377 -50 0 
201 237.17599 48.475258 -50 0 
202 237.12705 48.511499 -50 0 
203 237.07552 48.547397 -50 0 
204 237.06343 48.555559 -50 0 
205 237.02148 48.583223 -50 0 
206 236.965 48.619247 -50 0 
207 236.90077 48.65558 -50 0 
208 236.85975 48.67606 -50 0 
209 236.82127 48.694118 -50 0 
210 236.72834 48.734713 -50 0 
211 236.63009 48.774684 -50 0 
212 236.62375 48.777199 -50 0 
213 236.50931 48.821439 -50 0 
214 236.39246 48.865182 -50 0 
215 236.38686 48.867257 -50 0 
216 236.25819 48.914537 -50 0 
217 236.15231 48.953184 -50 0 
218 236.12511 48.96313 -50 0 
219 235.98949 49.012912 -50 0 
220 235.91217 49.041604 -50 0 
221 235.85319 49.063737 -50 0 
222 235.718 49.115537 -50 0 
223 235.67408 49.132782 -50 0 
224 235.58579 49.168203 -50 0 
225 235.45845 49.221607 -50 0 
226 235.44063 49.229361 -50 0 
227 235.33783 49.275701 -50 0 
228 235.22585 49.330384 -50 0 
229 235.21645 49.335229 -50 0 
230 235.12437 49.385583 -50 0 
231 235.01046 49.456129 -50 0 
232 235.00105 49.462294 -50 0 
233 234.87322 49.550977 -50 0 
234 234.82176 49.588843 -50 0 
235 234.74241 49.64934 -50 0 
236 234.64358 49.727836 -50 0 
237 234.61017 49.755058 -50 0 
238 234.47806 49.865829 -50 0 
239 234.47238 49.870689 -50 0 
240 234.34768 49.979368 -50 0 
241 234.30624 50.016225 -50 0 
242 234.22072 50.093397 -50 0 
243 234.14399 50.163762 -50 0 
244 234.09886 50.205613 -50 0 
245 233.98481 50.312856 -50 0 
246 233.98385 50.313772 -50 0 
247 233.87744 50.415587 -50 0 
248 233.82821 50.46324 -50 0 
249 233.78145 50.508828 -50 0 
250 233.69768 50.591219 -50 0 
251 233.67393 50.614757 -50 0 
252 233.62801 50.660519 -50 0 
253 233.57426 50.714473 -50 0 
254 233.53827 50.750823 -50 0 
255 233.52186 50.767316 -50 0 
256 233.4693820689655 50.740512 -50 0 
257 233.416904137931 50.713708 -50 0 
258 233.3644262068966 50.686904 -50 0 
259 233.3119482758621 50.6601 -50 0 
260 233.2594703448276 50.633296 -50 0 
261 233.2069924137931 50.606492 -50 0 
262 233.1545144827586 50.579688 -50 0 
263 233.1020365517242 50.552884 -50 0 
264 233.0495586206897 50.52608 -50 0 
265 232.9970806896552 50.499276 -50 0 
266 232.9446027586207 50.472472 -50 0 
267 232.8921248275862 50.445668 -50 0 
268 232.8396468965517 50.418864 -50 0 
269 232.7871689655173 50.39206 -50 0 
270 232.7346910344828 50.365256 -50 0 
271 232.6822131034483 50.338452 -50 0 
272 232.6297351724138 50.311648 -50 0 
273 232.5772572413793 50.284844 -50 0 
274 232.5247793103448 50.25804 -50 0 
275 232.4723013793104 50.231236 -50 0 
276 232.4198234482758 50.204432 -50 0 
277 232.3673455172414 50.177628 -50 0 
278 232.3148675862069 50.150824 -50 0 
279 232.2623896551724 50.12402 -50 0 
280 232.2099117241379 50.097216 -50 0 
281 232.1574337931035 50.070412 -50 0 
282 232.104955862069 50.043608 -50 0 
283 232.0524779310345 50.016804 -50 0 
284 232 49.99 -50 0 
285 232 50.7425 -50 0 
286 232 51.495 -50 0 
287 232 52.2475 -50 0 
288 232 53 -50 0 
0 232.7647058823529 53 -50 233.5294117647059 53 -50 0 2 0 -1 
1 233.5294117647059 53 -50 234.2941176470588 53 -50 0 2 1 -2 
2 234.2941176470588 53 -50 235.0588235294118 53 -50 0 2 2 -3 
3 235.0588235294118 53 -50 235.8235294117647 53 -50 0 2 3 -4 
4 235.8235294117647 53 -50 236.5882352941177 53 -50 0 2 4 -5 
5 236.5882352941177 53 -50 237.3529411764706 53 -50 0 2 5 -6 
6 237.3529411764706 53 -50 238.1176470588235 53 -50 0 2 6 -7 
7 238.1176470588235 53 -50 238.8823529411765 53 -50 0 2 7 -8 
8 238.8823529411765 53 -50 239.6470588235294 53 -50 0 2 8 -9 
9 239.6470588235294 53 -50 240.4117647058823 53 -50 0 2 9 -10 
10 240.4117647058823 53 -50 241.1764705882353 53 -50 0 2 10 -11 
11 241.1764705882353 53 -50 241.9411764705882 53 -50 0 2 11 -12 
12 241.9411764705882 53 -50 242.7058823529412 53 -50 0 2 12 -13 
13 242.7058823529412 53 -50 243.4705882352941 53 -50 0 2 13 -14 
14 243.4705882352941 53 -50 244.2352941176471 53 -50 0 2 14 -15 
15 244.2352941176471 53 -50 245 53 -50 0 2 15 -16 
16 245 52.29615931578947 -50 245 53 -50 0 2 16 -17 
17 245 51.59231863157895 -50 245 52.29615931578947 -50 0 2 17 -18 
18 245 50.88847794736842 -50 245 51.59231863157895 -50 0 2 18 -19 
19 245 50.1846372631579 -50 245 50.88847794736842 -50 0 2 19 -20 
20 245 49.48079657894737 -50 245 50.1846372631579 -50 0 2 20 -21 
21 245 48.77695589473684 -50 245 49.48079657894737 -50 0 2 21 -22 
22 245 48.07311521052631 -50 245 48.77695589473684 -50 0 2 22 -23 
23 245 47.36927452631579 -50 245 48.07311521052631 -50 0 2 23 -24 
24 245 46.66543384210526 -50 245 47.36927452631579 -50 0 2 24 -25 
25 245 45.96159315789473 -50 245 46.66543384210526 -50 0 2 25 -26 
26 245 45.25775247368421 -50 245 45.96159315789473 -50 0 2 26 -27 
27 245 44.55391178947368 -50 245 45.25775247368421 -50 0 2 27 -28 
28 245 43.85007110526315 -50 245 44.55391178947368 -50 0 2 28 -29 
29 245 43.14623042105263 -50 245 43.85007110526315 -50 0 2 29 -30 
30 245 42.4423897368421 -50 245 43.14623042105263 -50 0 2 30 -31 
31 245 41.73854905263158 -50 245 42.4423897368421 -50 0 2 31 -32 
32 245 41.03470836842105 -50 245 41.73854905263158 -50 0 2 32 -33 
33 245 40.33086768421052 -50 245 41.03470836842105 -50 0 2 33 -34 
34 245 39.627027 -50 245 40.33086768421052 -50 0 2 34 -35 
35 237.05315 39.627027 -50 245 39.627027 -50 0 2 35 -36 
36 237.05315 39.627027 -50 237.9361333333333 39.627027 -50 0 2 36 -37 
37 237.9361333333333 39.627027 -50 238.8191166666666 39.627027 -50 0 2 37 -38 
38 238.8191166666666 39.627027 -50 239.7021 39.627027 -50 0 2 38 -39 
39 239.7021 39.627027 -50 240.5850833333333 39.627027 -50 0 2 39 -40 
40 240.5850833333333 39.627027 -50 241.4680666666667 39.627027 -50 0 2 40 -41 
41 241.4680666666667 39.627027 -50 242.35105 39.627027 -50 0 2 41 -42 
42 242.35105 39.627027 -50 243.2340333333333 39.627027 -50 0 2 42 -43 
43 243.2340333333333 39.627027 -50 244.1170166666667 39.627027 -50 0 2 43 -44 
44 237.08836 39.627027 -50 244.1170166666667 39.685224 -50 0 2 44 -45 
45 237.08836 39.685224 -50 237.11874 39.73854 -50 0 2 45 -46 
46 237.11874 39.73854 -50 237.14469 39.787412 -50 0 2 46 -47 
47 237.14469 39.787412 -50 237.14755 39.793037 -50 0 2 47 -48 
48 237.14755 39.793037 -50 237.1666 39.832232 -50 0 2 48 -49 
49 237.1666 39.832232 -50 237.18485 39.873443 -50 0 2 49 -50 
50 237.18485 39.873443 -50 237.19988 39.91142 -50 0 2 50 -51 
51 237.19988 39.91142 -50 237.21203 39.946606 -50 0 2 51 -52 
52 237.21203 39.946606 -50 237.21793 39.965929 -50 0 2 52 -53 
53 237.21793 39.965929 -50 237.22172 39.979416 -50 0 2 53 -54 
54 237.22172 39.979416 -50 237.22935 40.010269 -50 0 2 54 -55 
55 237.22935 40.010269 -50 237.23534 40.039563 -50 0 2 55 -56 
56 237.23534 40.039563 -50 237.24008 40.067706 -50 0 2 56 -57 
57 237.24008 40.067706 -50 237.24397 40.095121 -50 0 2 57 -58 
58 237.24397 40.095121 -50 237.24741 40.122217 -50 0 2 58 -59 
59 237.24741 40.122217 -50 237.25031 40.145454 -50 0 2 59 -60 
60 237.25031 40.145454 -50 237.25082 40.14942 -50 0 2 60 -61 
61 237.25082 40.14942 -50 237.25459 40.177118 -50 0 2 61 -62 
62 237.25459 40.177118 -50 237.25914 40.205754 -50 0 2 62 -63 
63 237.25914 40.205754 -50 237.26409 40.241108 -50 0 2 63 -64 
64 237.26409 40.241108 -50 237.26776 40.282133 -50 0 2 64 -65 
65 237.26776 40.282133 -50 237.27018 40.326136 -50 0 2 65 -66 
66 237.27018 40.326136 -50 237.27026 40.328122 -50 0 2 66 -67 
67 237.27026 40.328122 -50 237.27169 40.378388 -50 0 2 67 -68 
68 237.27169 40.378388 -50 237.27216 40.432207 -50 0 2 68 -69 
69 237.27177 40.432207 -50 237.27216 40.4889 -50 0 2 69 -70 
70 237.27148 40.4889 -50 237.27177 40.507517 -50 0 2 70 -71 
71 237.27063 40.507517 -50 237.27148 40.547771 -50 0 2 71 -72 
72 237.26883 40.547771 -50 237.27063 40.608102 -50 0 2 72 -73 
73 237.26648 40.608102 -50 237.26883 40.66919 -50 0 2 73 -74 
74 237.26562 40.66919 -50 237.26648 40.688848 -50 0 2 74 -75 
75 237.26367 40.688848 -50 237.26562 40.730344 -50 0 2 75 -76 
76 237.26051 40.730344 -50 237.26367 40.790859 -50 0 2 76 -77 
77 237.25711 40.790859 -50 237.26051 40.850049 -50 0 2 77 -78 
78 237.2559 40.850049 -50 237.25711 40.870076 -50 0 2 78 -79 
79 237.25358 40.870076 -50 237.2559 40.907197 -50 0 2 79 -80 
80 237.25001 40.907197 -50 237.25358 40.961597 -50 0 2 80 -81 
81 237.24653 40.961597 -50 237.25001 41.012571 -50 0 2 81 -82 
82 237.24384 41.012571 -50 237.24653 41.051219 -50 0 2 82 -83 
83 237.24322 41.051219 -50 237.24384 41.059414 -50 0 2 83 -84 
84 237.23762 41.059414 -50 237.24322 41.128574 -50 0 2 84 -85 
85 237.22845 41.128574 -50 237.23762 41.231878 -50 0 2 85 -86 
86 237.22841 41.231878 -50 237.22845 41.232264 -50 0 2 86 -87 
87 237.21632 41.232264 -50 237.22841 41.365377 -50 0 2 87 -88 
88 237.21196 41.365377 -50 237.21632 41.413233 -50 0 2 88 -89 
89 237.20177 41.413233 -50 237.21196 41.525118 -50 0 2 89 -90 
90 237.19551 41.525118 -50 237.20177 41.594191 -50 0 2 90 -91 
91 237.18536 41.594191 -50 237.19551 41.707159 -50 0 2 91 -92 
92 237.17932 41.707159 -50 237.18536 41.775152 -50 0 2 92 -93 
93 237.16769 41.775152 -50 237.17932 41.907558 -50 0 2 93 -94 
94 237.16348 41.907558 -50 237.16769 41.956125 -50 0 2 94 -95 
95 237.14932 41.956125 -50 237.16348 42.122366 -50 0 2 95 -96 
96 237.14809 42.122366 -50 237.14932 42.137113 -50 0 2 96 -97 
97 237.13323 42.137113 -50 237.14809 42.318121 -50 0 2 97 -98 
98 237.13087 42.318121 -50 237.13323 42.347626 -50 0 2 98 -99 
99 237.11899 42.347626 -50 237.13087 42.499151 -50 0 2 99 -100 
100 237.11291 42.499151 -50 237.11899 42.579407 -50 0 2 100 -101 
101 237.10549 42.579407 -50 237.11291 42.680206 -50 0 2 101 -102 
102 237.09608 42.680206 -50 237.10549 42.813772 -50 0 2 102 -103 
103 237.09286 42.813772 -50 237.09608 42.86129 -50 0 2 103 -104 
104 237.08127 42.86129 -50 237.09286 43.042406 -50 0 2 104 -105 
105 237.08101 43.042406 -50 237.08127 43.046758 -50 0 2 105 -106 
106 237.07096 43.046758 -50 237.08101 43.223558 -50 0 2 106 -107 
107 237.06834 43.223558 -50 237.07096 43.274429 -50 0 2 107 -108 
108 237.06225 43.274429 -50 237.06834 43.404751 -50 0 2 108 -109 
109 237.05873 43.404751 -50 237.06225 43.492861 -50 0 2 109 -110 
110 237.05561 43.492861 -50 237.05873 43.585983 -50 0 2 110 -111 
111 237.05284 43.585983 -50 237.05561 43.698092 -50 0 2 111 -112 
112 237.05177 43.698092 -50 237.05284 43.767251 -50 0 2 112 -113 
113 237.05134 43.767251 -50 237.05177 43.886179 -50 0 2 113 -114 
114 237.05134 43.886179 -50 237.05208 43.94853 -50 0 2 114 -115 
115 237.05208 43.94853 -50 237.05495 44.053208 -50 0 2 115 -116 
116 237.05495 44.053208 -50 237.05835 44.129758 -50 0 2 116 -117 
117 237.05835 44.129758 -50 237.06294 44.210447 -50 0 2 117 -118 
118 237.06294 44.210447 -50 237.06958 44.310873 -50 0 2 118 -119 
119 237.06958 44.310873 -50 237.07381 44.367313 -50 0 2 119 -120 
120 237.07381 44.367313 -50 237.08436 44.491857 -50 0 2 120 -121 
121 237.08436 44.491857 -50 237.0873 44.523586 -50 0 2 121 -122 
122 237.0873 44.523586 -50 237.10245 44.672689 -50 0 2 122 -123 
123 237.10245 44.672689 -50 237.10315 44.679134 -50 0 2 123 -124 
124 237.10315 44.679134 -50 237.12108 44.833716 -50 0 2 124 -125 
125 237.12108 44.833716 -50 237.1235 44.853362 -50 0 2 125 -126 
126 237.1235 44.853362 -50 237.14085 44.987202 -50 0 2 126 -127 
127 237.14085 44.987202 -50 237.1472 45.033874 -50 0 2 127 -128 
128 237.1472 45.033874 -50 237.16214 45.139376 -50 0 2 128 -129 
129 237.16214 45.139376 -50 237.17318 45.214235 -50 0 2 129 -130 
130 237.17318 45.214235 -50 237.18472 45.290082 -50 0 2 130 -131 
131 237.18472 45.290082 -50 237.20111 45.394459 -50 0 2 131 -132 
132 237.20111 45.394459 -50 237.20828 45.439123 -50 0 2 132 -133 
133 237.20828 45.439123 -50 237.23056 45.574571 -50 0 2 133 -134 
134 237.23056 45.574571 -50 237.23253 45.586321 -50 0 2 134 -135 
135 237.23253 45.586321 -50 237.25721 45.731501 -50 0 2 135 -136 
136 237.25721 45.731501 -50 237.26119 45.754597 -50 0 2 136 -137 
137 237.26119 45.754597 -50 237.28202 45.874476 -50 0 2 137 -138 
138 237.28202 45.874476 -50 237.29254 45.934571 -50 0 2 138 -139 
139 237.29254 45.934571 -50 237.30667 46.015079 -50 0 2 139 -140 
140 237.30667 46.015079 -50 237.32411 46.114537 -50 0 2 140 -141 
141 237.32411 46.114537 -50 237.33085 46.153114 -50 0 2 141 -142 
142 237.33085 46.153114 -50 237.35426 46.288396 -50 0 2 142 -143 
143 237.35426 46.288396 -50 237.35531 46.294546 -50 0 2 143 -144 
144 237.35531 46.294546 -50 237.37659 46.420774 -50 0 2 144 -145 
145 237.37659 46.420774 -50 237.38526 46.474606 -50 0 2 145 -146 
146 237.38526 46.474606 -50 237.38605 46.479681 -50 0 2 146 -147 
147 237.38605 46.479681 -50 237.39486 46.538086 -50 0 2 147 -148 
148 237.39486 46.538086 -50 237.40308 46.595958 -50 0 2 148 -149 
149 237.40308 46.595958 -50 237.41076 46.653262 -50 0 2 149 -150 
150 237.41076 46.653262 -50 237.41099 46.655048 -50 0 2 150 -151 
151 237.41099 46.655048 -50 237.41798 46.709913 -50 0 2 151 -152 
152 237.41798 46.709913 -50 237.4248 46.765886 -50 0 2 152 -153 
153 237.4248 46.765886 -50 237.43127 46.82114 -50 0 2 153 -154 
154 237.43127 46.82114 -50 237.43295 46.835728 -50 0 2 154 -155 
155 237.43295 46.835728 -50 237.43749 46.875616 -50 0 2 155 -156 
156 237.43749 46.875616 -50 237.4435 46.929272 -50 0 2 156 -157 
157 237.4435 46.929272 -50 237.44936 46.982064 -50 0 2 157 -158 
158 237.44936 46.982064 -50 237.45318 47.016507 -50 0 2 158 -159 
159 237.45318 47.016507 -50 237.45513 47.033916 -50 0 2 159 -160 
160 237.45513 47.033916 -50 237.46091 47.084831 -50 0 2 160 -161 
161 237.46091 47.084831 -50 237.46674 47.134722 -50 0 2 161 -162 
162 237.46674 47.134722 -50 237.47268 47.183556 -50 0 2 162 -163 
163 237.47268 47.183556 -50 237.4744 47.197236 -50 0 2 163 -164 
164 237.4744 47.197236 -50 237.47881 47.231291 -50 0 2 164 -165 
165 237.47881 47.231291 -50 237.48518 47.277859 -50 0 2 165 -166 
166 237.48518 47.277859 -50 237.4899 47.309124 -50 0 2 166 -167 
167 237.4899 47.309124 -50 237.49535 47.34281 -50 0 2 167 -168 
168 237.49535 47.34281 -50 237.50117 47.377615 -50 0 2 168 -169 
169 237.50117 47.377615 -50 237.50134 47.378637 -50 0 2 169 -170 
170 237.50134 47.378637 -50 237.50771 47.416336 -50 0 2 170 -171 
171 237.50771 47.416336 -50 237.51422 47.455617 -50 0 2 171 -172 
172 237.51422 47.455617 -50 237.52069 47.496191 -50 0 2 172 -173 
173 237.52069 47.496191 -50 237.52691 47.53778 -50 0 2 173 -174 
174 237.52691 47.53778 -50 237.52973 47.557891 -50 0 2 174 -175 
175 237.52973 47.557891 -50 237.53267 47.580101 -50 0 2 175 -176 
176 237.53267 47.580101 -50 237.53777 47.622869 -50 0 2 176 -177 
177 237.53777 47.622869 -50 237.542 47.66581 -50 0 2 177 -178 
178 237.542 47.66581 -50 237.54517 47.708628 -50 0 2 178 -179 
179 237.54517 47.708628 -50 237.54666 47.738809 -50 0 2 179 -180 
180 237.54666 47.738809 -50 237.54707 47.751062 -50 0 2 180 -181 
181 237.54707 47.751062 -50 237.54749 47.792804 -50 0 2 181 -182 
182 237.54623 47.792804 -50 237.54749 47.833584 -50 0 2 182 -183 
183 237.54305 47.833584 -50 237.54623 47.873129 -50 0 2 183 -184 
184 237.53778 47.873129 -50 237.54305 47.911143 -50 0 2 184 -185 
185 237.53619 47.911143 -50 237.53778 47.919821 -50 0 2 185 -186 
186 237.52502 47.919821 -50 237.53619 47.973401 -50 0 2 186 -187 
187 237.50888 47.973401 -50 237.52502 48.031957 -50 0 2 187 -188 
188 237.48942 48.031957 -50 237.50888 48.087093 -50 0 2 188 -189 
189 237.48515 48.087093 -50 237.48942 48.097691 -50 0 2 189 -190 
190 237.46669 48.097691 -50 237.48515 48.13908 -50 0 2 190 -191 
191 237.44081 48.13908 -50 237.46669 48.188201 -50 0 2 191 -192 
192 237.41178 48.188201 -50 237.44081 48.234732 -50 0 2 192 -193 
193 237.38893 48.234732 -50 237.41178 48.266866 -50 0 2 193 -194 
194 237.3797 48.266866 -50 237.38893 48.278964 -50 0 2 194 -195 
195 237.34466 48.278964 -50 237.3797 48.32116 -50 0 2 195 -196 
196 237.30669 48.32116 -50 237.34466 48.361599 -50 0 2 196 -197 
197 237.26587 48.361599 -50 237.30669 48.400587 -50 0 2 197 -198 
198 237.24405 48.400587 -50 237.26587 48.419937 -50 0 2 198 -199 
199 237.22229 48.419937 -50 237.24405 48.438377 -50 0 2 199 -200 
200 237.17599 48.438377 -50 237.22229 48.475258 -50 0 2 200 -201 
201 237.12705 48.475258 -50 237.17599 48.511499 -50 0 2 201 -202 
202 237.07552 48.511499 -50 237.12705 48.547397 -50 0 2 202 -203 
203 237.06343 48.547397 -50 237.07552 48.555559 -50 0 2 203 -204 
204 237.02148 48.555559 -50 237.06343 48.583223 -50 0 2 204 -205 
205 236.965 48.583223 -50 237.02148 48.619247 -50 0 2 205 -206 
206 236.90077 48.619247 -50 236.965 48.65558 -50 0 2 206 -207 
207 236.85975 48.65558 -50 236.90077 48.67606 -50 0 2 207 -208 
208 236.82127 48.67606 -50 236.85975 48.694118 -50 0 2 208 -209 
209 236.72834 48.694118 -50 236.82127 48.734713 -50 0 2 209 -210 
210 236.63009 48.734713 -50 236.72834 48.774684 -50 0 2 210 -211 
211 236.62375 48.774684 -50 236.63009 48.777199 -50 0 2 211 -212 
212 236.50931 48.777199 -50 236.62375 48.821439 -50 0 2 212 -213 
213 236.39246 48.821439 -50 236.50931 48.865182 -50 0 2 213 -214 
214 236.38686 48.865182 -50 236.39246 48.867257 -50 0 2 214 -215 
215 236.25819 48.867257 -50 236.38686 48.914537 -50 0 2 215 -216 
216 236.15231 48.914537 -50 236.25819 48.953184 -50 0 2 216 -217 
217 236.12511 48.953184 -50 236.15231 48.96313 -50 0 2 217 -218 
218 235.98949 48.96313 -50 236.12511 49.012912 -50 0 2 218 -219 
219 235.91217 49.012912 -50 235.98949 49.041604 -50 0 2 219 -220 
220 235.85319 49.041604 -50 235.91217 49.063737 -50 0 2 220 -221 
221 235.718 49.063737 -50 235.85319 49.115537 -50 0 2 221 -222 
222 235.67408 49.115537 -50 235.718 49.132782 -50 0 2 222 -223 
223 235.58579 49.132782 -50 235.67408 49.168203 -50 0 2 223 -224 
224 235.45845 49.168203 -50 235.58579 49.221607 -50 0 2 224 -225 
225 235.44063 49.221607 -50 235.45845 49.229361 -50 0 2 225 -226 
226 235.33783 49.229361 -50 235.44063 49.275701 -50 0 2 226 -227 
227 235.22585 49.275701 -50 235.33783 49.330384 -50 0 2 227 -228 
228 235.21645 49.330384 -50 235.22585 49.335229 -50 0 2 228 -229 
229 235.12437 49.335229 -50 235.21645 49.385583 -50 0 2 229 -230 
230 235.01046 49.385583 -50 235.12437 49.456129 -50 0 2 230 -231 
231 235.00105 49.456129 -50 235.01046 49.462294 -50 0 2 231 -232 
232 234.87322 49.462294 -50 235.00105 49.550977 -50 0 2 232 -233 
233 234.82176 49.550977 -50 234.87322 49.588843 -50 0 2 233 -234 
234 234.74241 49.588843 -50 234.82176 49.64934 -50 0 2 234 -235 
235 234.64358 49.64934 -50 234.74241 49.727836 -50 0 2 235 -236 
236 234.61017 49.727836 -50 234.64358 49.755058 -50 0 2 236 -237 
237 234.47806 49.755058 -50 234.61017 49.865829 -50 0 2 237 -238 
238 234.47238 49.865829 -50 234.47806 49.870689 -50 0 2 238 -239 
239 234.34768 49.870689 -50 234.47238 49.979368 -50 0 2 239 -240 
240 234.30624 49.979368 -50 234.34768 50.016225 -50 0 2 240 -241 
241 234.22072 50.016225 -50 234.30624 50.093397 -50 0 2 241 -242 
242 234.14399 50.093397 -50 234.22072 50.163762 -50 0 2 242 -243 
243 234.09886 50.163762 -50 234.14399 50.205613 -50 0 2 243 -244 
244 233.98481 50.205613 -50 234.09886 50.312856 -50 0 2 244 -245 
245 233.98385 50.312856 -50 233.98481 50.313772 -50 0 2 245 -246 
246 233.87744 50.313772 -50 233.98385 50.415587 -50 0 2 246 -247 
247 233.82821 50.415587 -50 233.87744 50.46324 -50 0 2 247 -248 
248 233.78145 50.46324 -50 233.82821 50.508828 -50 0 2 248 -249 
249 233.69768 50.508828 -50 233.78145 50.591219 -50 0 2 249 -250 
250 233.67393 50.591219 -50 233.69768 50.614757 -50 0 2 250 -251 
251 233.62801 50.614757 -50 233.67393 50.660519 -50 0 2 251 -252 
252 233.57426 50.660519 -50 233.62801 50.714473 -50 0 2 252 -253 
253 233.53827 50.714473 -50 233.57426 50.750823 -50 0 2 253 -254 
254 233.52186 50.750823 -50 233.53827 50.767316 -50 0 2 254 -255 
255 233.4693820689655 50.740512 -50 233.52186 50.767316 -50 0 2 255 -256 
256 233.416904137931 50.713708 -50 233.4693820689655 50.740512 -50 0 2 256 -257 
257 233.3644262068966 50.686904 -50 233.416904137931 50.713708 -50 0 2 257 -258 
258 233.3119482758621 50.6601 -50 233.3644262068966 50.686904 -50 0 2 258 -259 
259 233.2594703448276 50.633296 -50 233.3119482758621 50.6601 -50 0 2 259 -260 
260 233.2069924137931 50.606492 -50 233.2594703448276 50.633296 -50 0 2 260 -261 
261 233.1545144827586 50.579688 -50 233.2069924137931 50.606492 -50 0 2 261 -262 
262 233.1020365517242 50.552884 -50 233.1545144827586 50.579688 -50 0 2 262 -263 
263 233.0495586206897 50.52608 -50 233.1020365517242 50.552884 -50 0 2 263 -264 
264 232.9970806896552 50.499276 -50 233.0495586206897 50.52608 -50 0 2 264 -265 
265 232.9446027586207 50.472472 -50 232.9970806896552 50.499276 -50 0 2 265 -266 
266 232.8921248275862 50.445668 -50 232.9446027586207 50.472472 -50 0 2 266 -267 
267 232.8396468965517 50.418864 -50 232.8921248275862 50.445668 -50 0 2 267 -268 
268 232.7871689655173 50.39206 -50 232.8396468965517 50.418864 -50 0 2 268 -269 
269 232.7346910344828 50.365256 -50 232.7871689655173 50.39206 -50 0 2 269 -270 
270 232.6822131034483 50.338452 -50 232.7346910344828 50.365256 -50 0 2 270 -271 
271 232.6297351724138 50.311648 -50 232.6822131034483 50.338452 -50 0 2 271 -272 
272 232.5772572413793 50.284844 -50 232.6297351724138 50.311648 -50 0 2 272 -273 
273 232.5247793103448 50.25804 -50 232.5772572413793 50.284844 -50 0 2 273 -274 
274 232.4723013793104 50.231236 -50 232.5247793103448 50.25804 -50 0 2 274 -275 
275 232.4198234482758 50.204432 -50 232.4723013793104 50.231236 -50 0 2 275 -276 
276 232.3673455172414 50.177628 -50 232.4198234482758 50.204432 -50 0 2 276 -277 
277 232.3148675862069 50.150824 -50 232.3673455172414 50.177628 -50 0 2 277 -278 
278 232.2623896551724 50.12402 -50 232.3148675862069 50.150824 -50 0 2 278 -279 
279 232.2099117241379 50.097216 -50 232.2623896551724 50.12402 -50 0 2 279 -280 
280 232.1574337931035 50.070412 -50 232.2099117241379 50.097216 -50 0 2 280 -281 
281 232.104955862069 50.043608 -50 232.1574337931035 50.070412 -50 0 2 281 -282 
282 232.0524779310345 50.016804 -50 232.104955862069 50.043608 -50 0 2 282 -283 
283 232 49.99 -50 232.0524779310345 50.016804 -50 0 2 283 -284 
284 232 49.99 -50 232 50.7425 -50 0 2 284 -285 
285 232 50.7425 -50 232 51.495 -50 0 2 285 -286 
286 232 51.495 -50 232 52.2475 -50 0 2 286 -287 
287 232 52.2475 -50 232 53 -50 0 2 287 -288 
288 232 53 -50 232.7647058823529 53 -50 0 2 288 0 
0 232 39.627027 -50 245 53 -50 0 289 0 1 2 3 4 5 6 7 8 9 10 11 12 13 14 15 16 17 18 19 20 21 22 23 24 25 26 27 28 29 30 31 32 33 34 35 36 37 38 39 40 41 42 43 44 45 46 47 48 49 50 51 52 53 54 55 56 57 58 59 60 61 62 63 64 65 66 67 68 69 70 71 72 73 74 75 76 77 78 79 80 81 82 83 84 85 86 87 88 89 90 91 92 93 94 95 96 97 98 99 100 101 102 103 104 105 106 107 108 109 110 111 112 113 114 115 116 117 118 119 120 121 122 123 124 125 126 127 128 129 130 131 132 133 134 135 136 137 138 139 140 141 142 143 144 145 146 147 148 149 150 151 152 153 154 155 156 157 158 159 160 161 162 163 164 165 166 167 168 169 170 171 172 173 174 175 176 177 178 179 180 181 182 183 184 185 186 187 188 189 190 191 192 193 194 195 196 197 198 199 200 201 202 203 204 205 206 207 208 209 210 211 212 213 214 215 216 217 218 219 220 221 222 223 224 225 226 227 228 229 230 231 232 233 234 235 236 237 238 239 240 241 242 243 244 245 246 247 248 249 250 251 252 253 254 255 256 257 258 259 260 261 262 263 264 265 266 267 268 269 270 271 272 273 274 275 276 277 278 279 280 281 282 283 284 285 286 287 288 
$EndEntities
