$MeshFormat
4.1 0 8
$EndMeshFormat
$Entities
114 114 1 0
0 233.52186 50.767316 -50 0 
1 234.2416533333333 50.767316 -50 0 
2 234.9614466666667 50.767316 -50 0 
3 235.68124 50.767316 -50 0 
4 236.4010333333333 50.767316 -50 0 
5 237.1208266666667 50.767316 -50 0 
6 237.84062 50.767316 -50 0 
7 238.5604133333333 50.767316 -50 0 
8 239.2802066666667 50.767316 -50 0 
9 240 50.767316 -50 0 
10 240 50.767316 -50 0 
11 240 50.180985 -50 0 
12 240 49.594654 -50 0 
13 240 49.008323 -50 0 
14 240 48.421992 -50 0 
15 240 47.835661 -50 0 
16 240 47.24933 -50 0 
17 240 46.662999 -50 0 
18 240 46.076668 -50 0 
19 240 45.490337 -50 0 
20 240 44.904006 -50 0 
21 240 44.317675 -50 0 
22 240 43.731344 -50 0 
23 240 43.145013 -50 0 
24 240 42.558682 -50 0 
25 240 41.972351 -50 0 
26 240 41.38602 -50 0 
27 240 40.799689 -50 0 
28 240 40.213358 -50 0 
29 240 39.627027 -50 0 
30 240 39.627027 -50 0 
31 239.7895107142857 39.627027 -50 0 
32 239.5790214285714 39.627027 -50 0 
33 239.3685321428571 39.627027 -50 0 
34 239.1580428571428 39.627027 -50 0 
35 238.9475535714286 39.627027 -50 0 
36 238.7370642857143 39.627027 -50 0 
37 238.526575 39.627027 -50 0 
38 238.3160857142857 39.627027 -50 0 
39 238.1055964285714 39.627027 -50 0 
40 237.8951071428571 39.627027 -50 0 
41 237.6846178571429 39.627027 -50 0 
42 237.4741285714286 39.627027 -50 0 
43 237.2636392857143 39.627027 -50 0 
44 237.05315 39.627027 -50 0 
45 237.05315 39.627027 -50 0 
46 237.14755 39.793037 -50 0 
47 237.21793 39.965929 -50 0 
48 237.25031 40.145454 -50 0 
49 237.27018 40.326136 -50 0 
50 237.27148 40.507517 -50 0 
51 237.26562 40.688848 -50 0 
52 237.2559 40.870076 -50 0 
53 237.24384 41.051219 -50 0 
54 237.22841 41.232264 -50 0 
55 237.21196 41.413233 -50 0 
56 237.19551 41.594191 -50 0 
57 237.17932 41.775152 -50 0 
58 237.16348 41.956125 -50 0 
59 237.14809 42.137113 -50 0 
60 237.13323 42.318121 -50 0 
61 237.11899 42.499151 -50 0 
62 237.10549 42.680206 -50 0 
63 237.09286 42.86129 -50 0 
64 237.08127 43.042406 -50 0 
65 237.07096 43.223558 -50 0 
66 237.06225 43.404751 -50 0 
67 237.05561 43.585983 -50 0 
68 237.05177 43.767251 -50 0 
69 237.05208 43.94853 -50 0 
70 237.05835 44.129758 -50 0 
71 237.06958 44.310873 -50 0 
72 237.08436 44.491857 -50 0 
73 237.10245 44.672689 -50 0 
74 237.1235 44.853362 -50 0 
75 237.1472 45.033874 -50 0 
76 237.17318 45.214235 -50 0 
77 237.20111 45.394459 -50 0 
78 237.23056 45.574571 -50 0 
79 237.26119 45.754597 -50 0 
80 237.29254 45.934571 -50 0 
81 237.32411 46.114537 -50 0 
82 237.35531 46.294546 -50 0 
83 237.38526 46.474606 -50 0 
84 237.41099 46.655048 -50 0 
85 237.43295 46.835728 -50 0 
86 237.45318 47.016507 -50 0 
87 237.4744 47.197236 -50 0 
88 237.50117 47.377615 -50 0 
89 237.52973 47.557891 -50 0 
90 237.54666 47.738809 -50 0 
91 237.53619 47.919821 -50 0 
92 237.48515 48.097691 -50 0 
93 237.38893 48.266866 -50 0 
94 237.24405 48.419937 -50 0 
95 237.06343 48.555559 -50 0 
96 236.85975 48.67606 -50 0 
97 236.63009 48.774684 -50 0 
98 236.39246 48.865182 -50 0 
99 236.15231 48.953184 -50 0 
100 235.91217 49.041604 -50 0 
101 235.67408 49.132782 -50 0 
102 235.44063 49.229361 -50 0 
103 235.21645 49.335229 -50 0 
104 235.01046 49.456129 -50 0 
105 234.82176 49.588843 -50 0 
106 234.64358 49.727836 -50 0 
107 234.47238 49.870689 -50 0 
108 234.30624 50.016225 -50 0 
109 234.14399 50.163762 -50 0 
110 233.98481 50.312856 -50 0 
111 233.82821 50.46324 -50 0 
112 233.67393 50.614757 -50 0 
113 233.52186 50.767316 -50 0 
0 233.52186 50.767316 -50 234.2416533333333 50.767316 -50 0 2 0 -1 
1 234.2416533333333 50.767316 -50 234.9614466666667 50.767316 -50 0 2 1 -2 
2 234.9614466666667 50.767316 -50 235.68124 50.767316 -50 0 2 2 -3 
3 235.68124 50.767316 -50 236.4010333333333 50.767316 -50 0 2 3 -4 
4 236.4010333333333 50.767316 -50 237.1208266666667 50.767316 -50 0 2 4 -5 
5 237.1208266666667 50.767316 -50 237.84062 50.767316 -50 0 2 5 -6 
6 237.84062 50.767316 -50 238.5604133333333 50.767316 -50 0 2 6 -7 
7 238.5604133333333 50.767316 -50 239.2802066666667 50.767316 -50 0 2 7 -8 
8 239.2802066666667 50.767316 -50 240 50.767316 -50 0 2 8 -9 
9 240 50.767316 -50 240 50.767316 -50 0 2 9 -10 
10 240 50.180985 -50 240 50.767316 -50 0 2 10 -11 
11 240 49.594654 -50 240 50.180985 -50 0 2 11 -12 
12 240 49.008323 -50 240 49.594654 -50 0 2 12 -13 
13 240 48.421992 -50 240 49.008323 -50 0 2 13 -14 
14 240 47.835661 -50 240 48.421992 -50 0 2 14 -15 
15 240 47.24933 -50 240 47.835661 -50 0 2 15 -16 
16 240 46.662999 -50 240 47.24933 -50 0 2 16 -17 
17 240 46.076668 -50 240 46.662999 -50 0 2 17 -18 
18 240 45.490337 -50 240 46.076668 -50 0 2 18 -19 
19 240 44.904006 -50 240 45.490337 -50 0 2 19 -20 
20 240 44.317675 -50 240 44.904006 -50 0 2 20 -21 
21 240 43.731344 -50 240 44.317675 -50 0 2 21 -22 
22 240 43.145013 -50 240 43.731344 -50 0 2 22 -23 
23 240 42.558682 -50 240 43.145013 -50 0 2 23 -24 
24 240 41.972351 -50 240 42.558682 -50 0 2 24 -25 
25 240 41.38602 -50 240 41.972351 -50 0 2 25 -26 
26 240 40.799689 -50 240 41.38602 -50 0 2 26 -27 
27 240 40.213358 -50 240 40.799689 -50 0 2 27 -28 
28 240 39.627027 -50 240 40.213358 -50 0 2 28 -29 
29 240 39.627027 -50 240 39.627027 -50 0 2 29 -30 
30 239.7895107142857 39.627027 -50 240 39.627027 -50 0 2 30 -31 
31 239.5790214285714 39.627027 -50 239.7895107142857 39.627027 -50 0 2 31 -32 
32 239.3685321428571 39.627027 -50 239.5790214285714 39.627027 -50 0 2 32 -33 
33 239.1580428571428 39.627027 -50 239.3685321428571 39.627027 -50 0 2 33 -34 
34 238.9475535714286 39.627027 -50 239.1580428571428 39.627027 -50 0 2 34 -35 
35 238.7370642857143 39.627027 -50 238.9475535714286 39.627027 -50 0 2 35 -36 
36 238.526575 39.627027 -50 238.7370642857143 39.627027 -50 0 2 36 -37 
37 238.3160857142857 39.627027 -50 238.526575 39.627027 -50 0 2 37 -38 
38 238.1055964285714 39.627027 -50 238.3160857142857 39.627027 -50 0 2 38 -39 
39 237.8951071428571 39.627027 -50 238.1055964285714 39.627027 -50 0 2 39 -40 
40 237.6846178571429 39.627027 -50 237.8951071428571 39.627027 -50 0 2 40 -41 
41 237.4741285714286 39.627027 -50 237.6846178571429 39.627027 -50 0 2 41 -42 
42 237.2636392857143 39.627027 -50 237.4741285714286 39.627027 -50 0 2 42 -43 
43 237.05315 39.627027 -50 237.2636392857143 39.627027 -50 0 2 43 -44 
44 237.05315 39.627027 -50 237.05315 39.627027 -50 0 2 44 -45 
45 237.05315 39.627027 -50 237.14755 39.793037 -50 0 2 45 -46 
46 237.14755 39.793037 -50 237.21793 39.965929 -50 0 2 46 -47 
47 237.21793 39.965929 -50 237.25031 40.145454 -50 0 2 47 -48 
48 237.25031 40.145454 -50 237.27018 40.326136 -50 0 2 48 -49 
49 237.27018 40.326136 -50 237.27148 40.507517 -50 0 2 49 -50 
50 237.26562 40.507517 -50 237.27148 40.688848 -50 0 2 50 -51 
51 237.2559 40.688848 -50 237.26562 40.870076 -50 0 2 51 -52 
52 237.24384 40.870076 -50 237.2559 41.051219 -50 0 2 52 -53 
53 237.22841 41.051219 -50 237.24384 41.232264 -50 0 2 53 -54 
54 237.21196 41.232264 -50 237.22841 41.413233 -50 0 2 54 -55 
55 237.19551 41.413233 -50 237.21196 41.594191 -50 0 2 55 -56 
56 237.17932 41.594191 -50 237.19551 41.775152 -50 0 2 56 -57 
57 237.16348 41.775152 -50 237.17932 41.956125 -50 0 2 57 -58 
58 237.14809 41.956125 -50 237.16348 42.137113 -50 0 2 58 -59 
59 237.13323 42.137113 -50 237.14809 42.318121 -50 0 2 59 -60 
60 237.11899 42.318121 -50 237.13323 42.499151 -50 0 2 60 -61 
61 237.10549 42.499151 -50 237.11899 42.680206 -50 0 2 61 -62 
62 237.09286 42.680206 -50 237.10549 42.86129 -50 0 2 62 -63 
63 237.08127 42.86129 -50 237.09286 43.042406 -50 0 2 63 -64 
64 237.07096 43.042406 -50 237.08127 43.223558 -50 0 2 64 -65 
65 237.06225 43.223558 -50 237.07096 43.404751 -50 0 2 65 -66 
66 237.05561 43.404751 -50 237.06225 43.585983 -50 0 2 66 -67 
67 237.05177 43.585983 -50 237.05561 43.767251 -50 0 2 67 -68 
68 237.05177 43.767251 -50 237.05208 43.94853 -50 0 2 68 -69 
69 237.05208 43.94853 -50 237.05835 44.129758 -50 0 2 69 -70 
70 237.05835 44.129758 -50 237.06958 44.310873 -50 0 2 70 -71 
71 237.06958 44.310873 -50 237.08436 44.491857 -50 0 2 71 -72 
72 237.08436 44.491857 -50 237.10245 44.672689 -50 0 2 72 -73 
73 237.10245 44.672689 -50 237.1235 44.853362 -50 0 2 73 -74 
74 237.1235 44.853362 -50 237.1472 45.033874 -50 0 2 74 -75 
75 237.1472 45.033874 -50 237.17318 45.214235 -50 0 2 75 -76 
76 237.17318 45.214235 -50 237.20111 45.394459 -50 0 2 76 -77 
77 237.20111 45.394459 -50 237.23056 45.574571 -50 0 2 77 -78 
78 237.23056 45.574571 -50 237.26119 45.754597 -50 0 2 78 -79 
79 237.26119 45.754597 -50 237.29254 45.934571 -50 0 2 79 -80 
80 237.29254 45.934571 -50 237.32411 46.114537 -50 0 2 80 -81 
81 237.32411 46.114537 -50 237.35531 46.294546 -50 0 2 81 -82 
82 237.35531 46.294546 -50 237.38526 46.474606 -50 0 2 82 -83 
83 237.38526 46.474606 -50 237.41099 46.655048 -50 0 2 83 -84 
84 237.41099 46.655048 -50 237.43295 46.835728 -50 0 2 84 -85 
85 237.43295 46.835728 -50 237.45318 47.016507 -50 0 2 85 -86 
86 237.45318 47.016507 -50 237.4744 47.197236 -50 0 2 86 -87 
87 237.4744 47.197236 -50 237.50117 47.377615 -50 0 2 87 -88 
88 237.50117 47.377615 -50 237.52973 47.557891 -50 0 2 88 -89 
89 237.52973 47.557891 -50 237.54666 47.738809 -50 0 2 89 -90 
90 237.53619 47.738809 -50 237.54666 47.919821 -50 0 2 90 -91 
91 237.48515 47.919821 -50 237.53619 48.097691 -50 0 2 91 -92 
92 237.38893 48.097691 -50 237.48515 48.266866 -50 0 2 92 -93 
93 237.24405 48.266866 -50 237.38893 48.419937 -50 0 2 93 -94 
94 237.06343 48.419937 -50 237.24405 48.555559 -50 0 2 94 -95 
95 236.85975 48.555559 -50 237.06343 48.67606 -50 0 2 95 -96 
96 236.63009 48.67606 -50 236.85975 48.774684 -50 0 2 96 -97 
97 236.39246 48.774684 -50 236.63009 48.865182 -50 0 2 97 -98 
98 236.15231 48.865182 -50 236.39246 48.953184 -50 0 2 98 -99 
99 235.91217 48.953184 -50 236.15231 49.041604 -50 0 2 99 -100 
100 235.67408 49.041604 -50 235.91217 49.132782 -50 0 2 100 -101 
101 235.44063 49.132782 -50 235.67408 49.229361 -50 0 2 101 -102 
102 235.21645 49.229361 -50 235.44063 49.335229 -50 0 2 102 -103 
103 235.01046 49.335229 -50 235.21645 49.456129 -50 0 2 103 -104 
104 234.82176 49.456129 -50 235.01046 49.588843 -50 0 2 104 -105 
105 234.64358 49.588843 -50 234.82176 49.727836 -50 0 2 105 -106 
106 234.47238 49.727836 -50 234.64358 49.870689 -50 0 2 106 -107 
107 234.30624 49.870689 -50 234.47238 50.016225 -50 0 2 107 -108 
108 234.14399 50.016225 -50 234.30624 50.163762 -50 0 2 108 -109 
109 233.98481 50.163762 -50 234.14399 50.312856 -50 0 2 109 -110 
110 233.82821 50.312856 -50 233.98481 50.46324 -50 0 2 110 -111 
111 233.67393 50.46324 -50 233.82821 50.614757 -50 0 2 111 -112 
112 233.52186 50.614757 -50 233.67393 50.767316 -50 0 2 112 -113 
113 233.52186 50.767316 -50 233.52186 50.767316 -50 0 2 113 0 
0 233.52186 39.627027 -50 240 50.767316 -50 0 114 0 1 2 3 4 5 6 7 8 9 10 11 12 13 14 15 16 17 18 19 20 21 22 23 24 25 26 27 28 29 30 31 32 33 34 35 36 37 38 39 40 41 42 43 44 45 46 47 48 49 50 51 52 53 54 55 56 57 58 59 60 61 62 63 64 65 66 67 68 69 70 71 72 73 74 75 76 77 78 79 80 81 82 83 84 85 86 87 88 89 90 91 92 93 94 95 96 97 98 99 100 101 102 103 104 105 106 107 108 109 110 111 112 113 
$EndEntities
