$MeshFormat
4.1 0 8
$EndMeshFormat
$Nodes
1 784 1 784
2 1 0 784
1
2
3
4
5
6
7
8
9
10
11
12
13
14
15
16
17
18
19
20
21
22
23
24
25
26
27
28
29
30
31
32
33
34
35
36
37
38
39
40
41
42
43
44
45
46
47
48
49
50
51
52
53
54
55
56
57
58
59
60
61
62
63
64
65
66
67
68
69
70
71
72
73
74
75
76
77
78
79
80
81
82
83
84
85
86
87
88
89
90
91
92
93
94
95
96
97
98
99
100
101
102
103
104
105
106
107
108
109
110
111
112
113
114
115
116
117
118
119
120
121
122
123
124
125
126
127
128
129
130
131
132
133
134
135
136
137
138
139
140
141
142
143
144
145
146
147
148
149
150
151
152
153
154
155
156
157
158
159
160
161
162
163
164
165
166
167
168
169
170
171
172
173
174
175
176
177
178
179
180
181
182
183
184
185
186
187
188
189
190
191
192
193
194
195
196
197
198
199
200
201
202
203
204
205
206
207
208
209
210
211
212
213
214
215
216
217
218
219
220
221
222
223
224
225
226
227
228
229
230
231
232
233
234
235
236
237
238
239
240
241
242
243
244
245
246
247
248
249
250
251
252
253
254
255
256
257
258
259
260
261
262
263
264
265
266
267
268
269
270
271
272
273
274
275
276
277
278
279
280
281
282
283
284
285
286
287
288
289
290
291
292
293
294
295
296
297
298
299
300
301
302
303
304
305
306
307
308
309
310
311
312
313
314
315
316
317
318
319
320
321
322
323
324
325
326
327
328
329
330
331
332
333
334
335
336
337
338
339
340
341
342
343
344
345
346
347
348
349
350
351
352
353
354
355
356
357
358
359
360
361
362
363
364
365
366
367
368
369
370
371
372
373
374
375
376
377
378
379
380
381
382
383
384
385
386
387
388
389
390
391
392
393
394
395
396
397
398
399
400
401
402
403
404
405
406
407
408
409
410
411
412
413
414
415
416
417
418
419
420
421
422
423
424
425
426
427
428
429
430
431
432
433
434
435
436
437
438
439
440
441
442
443
444
445
446
447
448
449
450
451
452
453
454
455
456
457
458
459
460
461
462
463
464
465
466
467
468
469
470
471
472
473
474
475
476
477
478
479
480
481
482
483
484
485
486
487
488
489
490
491
492
493
494
495
496
497
498
499
500
501
502
503
504
505
506
507
508
509
510
511
512
513
514
515
516
517
518
519
520
521
522
523
524
525
526
527
528
529
530
531
532
533
534
535
536
537
538
539
540
541
542
543
544
545
546
547
548
549
550
551
552
553
554
555
556
557
558
559
560
561
562
563
564
565
566
567
568
569
570
571
572
573
574
575
576
577
578
579
580
581
582
583
584
585
586
587
588
589
590
591
592
593
594
595
596
597
598
599
600
601
602
603
604
605
606
607
608
609
610
611
612
613
614
615
616
617
618
619
620
621
622
623
624
625
626
627
628
629
630
631
632
633
634
635
636
637
638
639
640
641
642
643
644
645
646
647
648
649
650
651
652
653
654
655
656
657
658
659
660
661
662
663
664
665
666
667
668
669
670
671
672
673
674
675
676
677
678
679
680
681
682
683
684
685
686
687
688
689
690
691
692
693
694
695
696
697
698
699
700
701
702
703
704
705
706
707
708
709
710
711
712
713
714
715
716
717
718
719
720
721
722
723
724
725
726
727
728
729
730
731
732
733
734
735
736
737
738
739
740
741
742
743
744
745
746
747
748
749
750
751
752
753
754
755
756
757
758
759
760
761
762
763
764
765
766
767
768
769
770
771
772
773
774
775
776
777
778
779
780
781
782
783
784
-2542.121706 -3226.048527 4870.304830
-2768.655943 -3990.108798 4123.495731
-2506.925780 -3223.968563 4876.850505
-2741.831547 -4005.879607 4110.670182
-2468.683710 -3222.619007 4884.212165
-2712.799189 -4033.650038 4087.247110
-2433.922798 -3220.492242 4890.064471
-2681.639604 -4063.642757 4062.498933
-2404.753473 -3218.793131 4892.656999
-2664.188644 -4075.477156 4046.497970
-2376.786489 -3214.606876 4896.144362
-2647.793484 -4085.536586 4031.454015
-2541.547811 -3242.765008 4859.490799
-2540.909945 -3259.461641 4848.641817
-2540.323398 -3276.113818 4837.713953
-2539.980173 -3292.678651 4826.635373
-2540.616612 -3308.959125 4815.152930
-2541.725867 -3325.066007 4803.457782
-2541.126398 -3341.577749 4792.303807
-2539.790966 -3358.204400 4781.377004
-2538.128442 -3374.852688 4770.525584
-2536.208677 -3391.508300 4759.722471
-2535.673896 -3407.862958 4748.312221
-2536.265484 -3423.899101 4736.445222
-2537.389862 -3439.741129 4724.349125
-2538.429089 -3455.570290 4712.223756
-2539.846869 -3471.240668 4699.926287
-2542.277366 -3486.513975 4687.289952
-2546.519640 -3500.978066 4674.187769
-2552.133601 -3514.710947 4660.800580
-2557.915217 -3528.305591 4647.340142
-2562.996030 -3542.226537 4633.931755
-2567.788553 -3556.248534 4620.519377
-2572.490280 -3570.269978 4607.071417
-2577.197813 -3584.242252 4593.571585
-2581.936793 -3598.152179 4580.015752
-2586.681392 -3612.011354 4566.409350
-2591.699136 -3625.681904 4552.709888
-2596.985743 -3639.162781 4538.920610
-2602.482088 -3652.481282 4525.053421
-2608.272720 -3665.586317 4511.100904
-2614.423956 -3678.433105 4497.061070
-2621.049012 -3690.943016 4482.932381
-2628.351095 -3702.968286 4468.717646
-2636.343560 -3714.471626 4454.439827
-2645.179289 -3725.294966 4440.140194
-2656.383537 -3734.038531 4426.084472
-2667.803062 -3742.510324 4412.038564
-2676.637887 -3753.152181 4397.624283
-2683.167196 -3765.341409 4383.201898
-2684.045510 -3779.954705 4370.066718
-2686.311085 -3794.118508 4356.379059
-2693.021800 -3806.039955 4341.812346
-2701.082307 -3817.003720 4327.155876
-2709.513672 -3827.640323 4312.464055
-2718.025172 -3838.159706 4297.733151
-2726.458690 -3848.679996 4282.957657
-2734.672926 -3859.305556 4268.133738
-2742.469294 -3870.176440 4253.261983
-2749.450388 -3881.550223 4238.364239
-2754.630784 -3893.969320 4223.582979
-2757.371404 -3907.574921 4209.204459
-2757.901550 -3922.020239 4195.399538
-2757.495715 -3936.732834 4181.864773
-2758.602472 -3950.865492 4167.783015
-2761.472291 -3964.226859 4153.169536
-2765.076303 -3977.187968 4138.353526
-2504.827486 -3240.940527 4866.668755
-2502.959551 -3257.849679 4856.328856
-2501.240962 -3274.704555 4845.866767
-2499.615452 -3291.512229 4835.306695
-2498.035825 -3308.280223 4824.667862
-2496.468338 -3325.012650 4813.964864
-2494.875149 -3341.715728 4803.212986
-2493.215703 -3358.396064 4792.428647
-2491.443652 -3375.060218 4781.631318
-2489.497059 -3391.717513 4770.846645
-2487.286406 -3408.378767 4760.113603
-2484.652412 -3425.059942 4749.503952
-2481.343357 -3441.773896 4739.140069
-2477.586702 -3458.491880 4728.923667
-2473.689238 -3475.185797 4718.714468
-2470.358764 -3491.803292 4708.179940
-2468.775181 -3508.147981 4696.846586
-2469.907428 -3523.800325 4684.518072
-2473.566478 -3538.492676 4671.494350
-2478.932159 -3552.338758 4658.122551
-2485.335786 -3565.571413 4644.580447
-2492.381883 -3578.371336 4630.940739
-2499.815897 -3590.887017 4617.225564
-2507.660394 -3603.075250 4603.456211
-2515.992871 -3614.876686 4589.636959
-2524.849989 -3626.246841 4575.782706
-2534.043683 -3637.302187 4561.904910
-2543.019351 -3648.476092 4547.966115
-2551.716620 -3659.800654 4533.974246
-2560.166939 -3671.249904 4519.932564
-2568.390178 -3682.806294 4505.844060
-2576.403224 -3694.455587 4491.710737
-2584.219427 -3706.186185 4477.534468
-2591.850762 -3717.988210 4463.316513
-2599.310125 -3729.851323 4449.057989
-2606.607519 -3741.767578 4434.759704
-2613.752579 -3753.729572 4420.422238
-2620.752410 -3765.731566 4406.046253
-2627.615109 -3777.767604 4391.632016
-2634.348142 -3789.831985 4377.179959
-2640.957271 -3801.920567 4362.690190
-2647.447505 -3814.029365 4348.163142
-2653.824729 -3826.154069 4333.599007
-2660.094734 -3838.292914 4318.995776
-2666.481592 -3850.306933 4304.338909
-2673.193381 -3862.061864 4289.619599
-2680.149349 -3873.605044 4274.845544
-2687.206726 -3885.026547 4260.024617
-2694.192163 -3896.439625 4245.162875
-2700.921876 -3907.962599 4230.268354
-2707.238713 -3919.690784 4215.353331
-2713.040132 -3931.677325 4200.434222
-2718.287423 -3943.931523 4185.527282
-2722.990120 -3956.437136 4170.641557
-2727.314790 -3969.089749 4155.767270
-2731.665326 -3981.675655 4140.843456
-2736.385156 -3994.010135 4125.821170
-2466.797655 -3239.657026 4873.882711
-2464.960302 -3256.655947 4863.472397
-2463.086178 -3273.627674 4853.016519
-2461.116776 -3290.580197 4842.539332
-2459.013783 -3307.517830 4832.057328
-2456.734510 -3324.445339 4821.588922
-2454.232668 -3341.366591 4811.154988
-2451.458432 -3358.284592 4800.778807
-2448.340029 -3375.202108 4790.495051
-2444.777049 -3392.121148 4780.353575
-2440.606368 -3409.038100 4770.440313
-2435.583327 -3425.937273 4760.891583
-2429.561741 -3442.769658 4751.817319
-2422.926181 -3459.526077 4743.027414
-2416.138495 -3476.239533 4734.261768
-2409.580917 -3492.945077 4725.299514
-2403.870041 -3509.671578 4715.804834
-2400.503202 -3526.293777 4705.107605
-2401.413929 -3542.062929 4692.781941
-2406.853938 -3556.012574 4679.426214
-2414.900589 -3568.421678 4665.814278
-2423.653343 -3580.299788 4652.156371
-2432.687313 -3591.922953 4638.461268
-2441.872507 -3603.381136 4624.727456
-2451.149098 -3614.716847 4610.953396
-2460.480355 -3625.956686 4597.137754
-2469.844650 -3637.116461 4583.279640
-2479.220744 -3648.211832 4569.378068
-2488.589165 -3659.257574 4555.431810
-2497.930737 -3670.268085 4541.439774
-2507.199569 -3681.278468 4527.398829
-2516.236911 -3692.406022 4513.301516
-2524.668159 -3703.915568 4499.140045
-2532.725105 -3715.632719 4484.927875
-2540.503514 -3727.484340 4470.671470
-2548.058500 -3739.430204 4456.373035
-2555.427602 -3751.443480 4442.033610
-2562.636037 -3763.506390 4427.653689
-2569.702294 -3775.606123 4413.233455
-2576.639826 -3787.733299 4398.773086
-2583.454893 -3799.883252 4384.272926
-2590.154601 -3812.050929 4369.733156
-2596.741445 -3824.234322 4355.154040
-2603.210175 -3836.435762 4340.536652
-2609.340421 -3848.784364 4325.899038
-2615.027870 -3861.336179 4311.254244
-2620.406043 -3874.008700 4296.595136
-2625.568864 -3886.746652 4281.914245
-2630.582431 -3899.512880 4267.204749
-2635.508234 -3912.273618 4252.459581
-2640.403756 -3924.998077 4237.671424
-2645.332982 -3937.651990 4222.832133
-2650.383552 -3950.187251 4207.931643
-2655.689288 -3962.528525 4192.956366
-2661.471811 -3974.544081 4177.890394
-2667.797889 -3986.177367 4162.744939
-2674.733855 -3997.369561 4147.533773
-2682.412348 -4008.006471 4132.281346
-2691.048259 -4017.891814 4117.038455
-2700.986070 -4026.674064 4101.922870
-2432.726231 -3237.387942 4879.492125
-2431.495649 -3254.257365 4868.872448
-2430.170833 -3271.110068 4858.229064
-2428.730159 -3287.948445 4847.571128
-2427.145670 -3304.776147 4836.910120
-2425.371222 -3321.598965 4826.265197
-2423.320940 -3338.427206 4815.672373
-2420.787483 -3355.281263 4805.221807
-2417.019607 -3372.196072 4795.267550
-2412.072897 -3389.108011 4785.826180
-2406.055327 -3405.947331 4776.892457
-2398.884728 -3422.643023 4768.558251
-2390.769766 -3439.159823 4760.743707
-2382.039384 -3455.522002 4753.265936
-2372.901871 -3471.762356 4745.996614
-2363.594040 -3487.931412 4738.780295
-2355.898668 -3504.401056 4730.454070
-2351.696718 -3521.024711 4720.189459
-2351.885740 -3536.989739 4708.143801
-2355.908359 -3551.635848 4695.088882
-2362.447974 -3565.005479 4681.651045
-2369.857677 -3577.819481 4668.111326
-2377.893291 -3590.185097 4654.511302
-2386.481188 -3602.126960 4640.869520
-2395.533201 -3613.686888 4627.198802
-2404.955134 -3624.919484 4613.505233
-2414.639034 -3635.897320 4599.788040
-2424.463173 -3646.710053 4586.040243
-2434.290117 -3657.464801 4572.249321
-2443.933365 -3668.308764 4558.396815
-2453.287475 -3679.315860 4544.479768
-2462.510860 -3690.366868 4530.509204
-2471.632367 -3701.439019 4516.487976
-2480.647687 -3712.534791 4502.416404
-2489.520422 -3723.680477 4488.292858
-2498.059313 -3735.011783 4474.110822
-2505.082425 -3747.284194 4459.899575
-2511.954643 -3759.607499 4445.640147
-2518.806698 -3771.890524 4431.335656
-2525.633971 -3784.136088 4416.986315
-2532.428300 -3796.349004 4402.592662
-2539.179347 -3808.535344 4388.155396
-2545.870605 -3820.705195 4373.675305
-2552.460405 -3832.883467 4359.154874
-2558.798279 -3845.159605 4344.603547
-2564.380600 -3857.811106 4330.072356
-2569.784343 -3870.510490 4315.511323
-2575.155001 -3883.176421 4300.906719
-2580.521878 -3895.792366 4286.255904
-2585.895376 -3908.352552 4271.557846
-2591.287211 -3920.849995 4256.811825
-2596.700100 -3933.283221 4242.017526
-2602.150231 -3945.642673 4227.173887
-2607.644661 -3957.924120 4212.280497
-2613.199848 -3970.117852 4197.336274
-2618.836668 -3982.211442 4182.339959
-2624.581054 -3994.189069 4167.290363
-2630.459999 -4006.038998 4152.181684
-2635.856987 -4018.104453 4137.073308
-2641.428430 -4030.015150 4121.906687
-2648.349288 -4041.044988 4106.638826
-2657.329071 -4050.560606 4091.435199
-2668.523041 -4058.130334 4076.621637
-2403.264154 -3235.750152 4882.192475
-2402.234431 -3252.599504 4871.491271
-2401.362561 -3269.386669 4860.671729
-2400.294457 -3286.174224 4849.866647
-2398.761851 -3303.003961 4839.180449
-2396.645923 -3319.882004 4828.667808
-2393.942560 -3336.792964 4818.341285
-2390.707860 -3353.718518 4808.185628
-2386.203008 -3370.656796 4798.569471
-2379.641439 -3387.471799 4789.979377
-2371.511188 -3404.029957 4782.266799
-2362.325732 -3420.320629 4775.184282
-2352.495181 -3436.401551 4768.487371
-2342.302825 -3452.341769 4761.986432
-2331.940622 -3468.201260 4755.543498
-2321.632015 -3484.060104 4748.990522
-2313.086296 -3500.369234 4741.161041
-2307.161041 -3516.999694 4731.731404
-2304.978693 -3533.428834 4720.541801
-2307.938315 -3548.547002 4707.737876
-2313.016464 -3562.747115 4694.501979
-2319.544989 -3576.153014 4681.068432
-2327.178663 -3588.860580 4667.534703
-2335.622131 -3600.993598 4653.952661
-2344.642653 -3612.674437 4640.344302
-2354.063326 -3624.010410 4626.715401
-2363.746007 -3635.094758 4613.063181
-2373.587260 -3646.001777 4599.382085
-2383.470973 -3656.820219 4585.661676
-2393.201721 -3667.701275 4571.882969
-2402.787737 -3678.638418 4558.046893
-2412.253508 -3689.611713 4544.156624
-2421.613664 -3700.609340 4530.213987
-2430.873156 -3711.626835 4516.219983
-2440.032206 -3722.663667 4502.174925
-2449.089016 -3733.720441 4488.079284
-2458.032974 -3744.804292 4473.932914
-2466.852083 -3755.923362 4459.735586
-2475.521193 -3767.094720 4445.486834
-2483.996647 -3778.348164 4431.185712
-2492.186562 -3789.745026 4416.831418
-2499.835636 -3801.448856 4402.427670
-2506.635291 -3813.632921 4388.000053
-2513.136539 -3825.944399 4373.540350
-2519.500330 -3838.284567 4359.042403
-2525.773244 -3850.625254 4344.504077
-2531.977672 -3862.953107 4329.924175
-2538.125086 -3875.261135 4315.302212
-2544.222947 -3887.544804 4300.637859
-2550.275921 -3899.801057 4285.931106
-2556.289621 -3912.026671 4271.181534
-2562.266057 -3924.220249 4256.389209
-2568.208758 -3936.379666 4241.553949
-2574.120485 -3948.503042 4226.675817
-2580.004191 -3960.588722 4211.754545
-2585.864170 -3972.634009 4196.790026
-2591.709948 -3984.633501 4181.781488
-2597.572791 -3996.569231 4166.726650
-2603.279939 -4008.538743 4151.639640
-2609.090451 -4020.391592 4136.503290
-2615.472477 -4031.849783 4121.292521
-2622.631053 -4042.761364 4106.025805
-2630.774905 -4052.942654 4090.750572
-2640.170496 -4062.121549 4075.564902
-2651.166342 -4069.867685 4060.671748
-2375.960473 -3231.395573 4885.482114
-2374.867628 -3248.199542 4874.858407
-2373.496146 -3265.016528 4864.280432
-2371.822340 -3281.845905 4853.760114
-2369.803745 -3298.688933 4843.317307
-2367.369880 -3315.548227 4832.984669
-2364.417908 -3332.424274 4822.812190
-2360.776684 -3349.314064 4812.885802
-2356.119441 -3366.195071 4803.381405
-2349.779012 -3382.961033 4794.700642
-2341.546201 -3399.419298 4787.081660
-2332.222882 -3415.590672 4780.116922
-2322.269888 -3431.548113 4773.529210
-2311.967468 -3447.365142 4767.129220
-2301.547885 -3463.119227 4760.748213
-2291.298313 -3478.910429 4754.174509
-2281.805770 -3494.913818 4746.997033
-2274.790516 -3511.374487 4738.208345
-2269.771900 -3527.950352 4728.291746
-2267.643532 -3544.306467 4717.067466
-2269.164815 -3559.838896 4704.623160
-2273.821361 -3574.164489 4691.495031
-2281.110311 -3587.068997 4678.088580
-2290.089054 -3598.839268 4664.642436
-2299.756938 -3610.057973 4651.197744
-2309.305137 -3621.311381 4637.699286
-2318.504767 -3632.769181 4624.128536
-2327.629316 -3644.228136 4610.508005
-2336.845160 -3655.567578 4596.849071
-2346.277795 -3666.693734 4583.162507
-2355.952043 -3677.576631 4569.459606
-2365.693300 -3688.359080 4555.715477
-2375.445672 -3699.077405 4541.929679
-2385.173213 -3709.759308 4528.098455
-2394.845064 -3720.428619 4514.218538
-2404.432157 -3731.107126 4500.287393
-2413.912567 -3741.811309 4486.303071
-2423.258170 -3752.561580 4472.263681
-2432.446609 -3763.373635 4458.168164
-2441.452468 -3774.264793 4444.015765
-2450.253498 -3785.249228 4429.806663
-2458.824344 -3796.342669 4415.541438
-2467.146097 -3807.555380 4401.221781
-2475.121795 -3818.948474 4386.849171
-2482.678919 -3830.563203 4372.428608
-2489.932563 -3842.319161 4357.965156
-2496.969892 -3854.157388 4343.460969
-2503.838258 -3866.046722 4328.916460
-2510.568063 -3877.967084 4314.331964
-2517.180200 -3889.905190 4299.707252
-2523.690342 -3901.851055 4285.042171
-2530.109538 -3913.797601 4270.336646
-2536.446278 -3925.739500 4255.590518
-2542.708433 -3937.671741 4240.803708
-2548.901868 -3949.590525 4225.976213
-2555.031948 -3961.492644 4211.107784
-2561.105415 -3973.373831 4196.198333
-2567.128631 -3985.230588 4181.247272
-2573.120086 -3997.052043 4166.253591
-2579.153652 -4008.796100 4151.212024
-2585.395636 -4020.357554 4136.120833
-2591.775002 -4031.780918 4120.981189
-2598.401015 -4042.997387 4105.791677
-2605.507281 -4053.852191 4090.556836
-2613.878285 -4063.777260 4075.339948
-2623.075467 -4073.015040 4060.180363
-2634.710942 -4080.063655 4045.543205
-2727.323093 -4019.801026 4098.980905
-2697.229136 -4048.687365 4074.898969
-2524.168459 -3319.985165 4811.288418
-2528.234225 -3573.804904 4620.697411
-2552.090091 -3552.615270 4629.425920
-2519.399080 -3300.905123 4825.236795
-2559.299716 -3583.035176 4601.247326
-2589.546603 -3677.506243 4505.126382
-2523.581147 -3284.655129 4835.211573
-2597.763587 -3690.025003 4490.240110
-2525.854327 -3484.260988 4694.908542
-2525.898803 -3346.761822 4792.584899
-2522.098779 -3266.002142 4847.711869
-2525.603442 -3548.984526 4642.629855
-2509.682773 -3513.145919 4678.186554
-2545.786442 -3540.229618 4642.114250
-2511.513110 -3334.426763 4804.379002
-2509.874461 -3316.054562 4817.086614
-2587.236930 -3661.838593 4521.221749
-2531.348706 -3517.475607 4666.527750
-2536.424923 -3557.153816 4631.576581
-2483.346009 -3490.981567 4704.863666
-2550.635528 -3568.132906 4617.021034
-2488.239793 -3507.547892 4690.519550
-2498.553831 -3437.052780 4738.529121
-2570.563210 -3625.080422 4560.862574
-2606.405375 -3704.646018 4473.024910
-2538.788985 -3529.536974 4653.716915
-2492.420450 -3540.743520 4662.430683
-2559.664006 -3636.527556 4554.416270
-2513.669364 -3533.866076 4659.883710
-2518.822384 -3588.957796 4611.397173
-2526.233983 -3499.594617 4682.819016
-2519.027355 -3386.796209 4767.222991
-2556.077212 -3599.917323 4588.049997
-2536.392553 -3612.607409 4584.208580
-2502.949781 -3397.071696 4764.126605
-2492.435534 -3526.457446 4674.015978
-2502.255274 -3552.990094 4648.459600
-2616.343451 -3720.743156 4453.813278
-2701.455729 -3860.792854 4281.789079
-2554.437774 -3617.315669 4573.509980
-2500.630095 -3414.637810 4752.898796
-2732.225908 -3886.079067 4241.593803
-2513.814955 -3568.156261 4631.092723
-2515.321960 -3423.296706 4743.613416
-2704.966270 -3873.804389 4266.865984
-2504.553624 -3381.251693 4774.408676
-2699.059399 -3873.296723 4267.444723
-2668.705853 -3805.944792 4349.187455
-2575.278230 -3670.772448 4516.008950
-2686.672244 -3823.223079 4323.757794
-2567.290757 -3601.302492 4582.728864
-2570.408655 -3611.088335 4573.157568
-2512.192121 -3580.012898 4621.638583
-2505.384371 -3490.193868 4697.713805
-2731.438024 -3905.082765 4222.093921
-2566.733954 -3654.501766 4534.724710
-2495.228843 -3465.682006 4719.583318
-2678.159185 -3790.447948 4360.264604
-2696.228908 -3837.980080 4306.041576
-2690.954700 -3813.015350 4333.947056
-2539.235976 -3590.508759 4602.362659
-2548.687827 -3630.463249 4563.731075
-2703.467851 -3886.742809 4251.789694
-2626.671609 -3739.389678 4431.702533
-2668.968798 -3830.652402 4323.927038
-2692.108522 -3821.031199 4325.778522
-2518.015506 -3403.718846 4756.168089
-2508.405600 -3373.315733 4778.852324
-2693.607042 -3861.532658 4281.752917
-2674.391697 -3774.938976 4377.292930
-2522.911094 -3250.484449 4857.609857
-2651.456343 -3798.252670 4363.549066
-2660.702501 -3804.062438 4354.517165
-2748.337271 -3928.981932 4190.150707
-2578.167033 -3638.934830 4545.829944
-2516.193233 -3470.211382 4709.062786
-2495.789479 -3452.516265 4728.715392
-2686.976457 -3798.716482 4348.383374
-2664.889651 -3822.296864 4334.158198
-2696.656803 -3841.926869 4302.455151
-2693.346518 -3825.918942 4318.585985
-2515.669000 -3438.823627 4732.516262
-2538.638277 -3624.692088 4572.502672
-2493.079452 -3477.958711 4711.304654
-2523.730370 -3602.513843 4597.795860
-2523.739015 -3235.615322 4866.995358
-2681.527544 -3839.416683 4309.525050
-2509.723543 -3355.178056 4790.781655
-2516.318553 -3453.888551 4721.254981
-2687.686770 -3850.697425 4295.348717
-2523.773423 -3366.855900 4779.519657
-2527.785271 -3333.494842 4801.154205
-2683.581604 -3813.945326 4334.419402
-2718.519051 -3861.460509 4273.631357
-2584.888459 -3649.969173 4533.292239
-2740.607370 -3912.700701 4209.875319
-2655.655569 -3781.528837 4379.448110
-2722.720040 -3872.310244 4260.421879
-2725.855109 -3925.439207 4203.204485
-2658.840630 -3818.556485 4340.154450
-2707.590003 -3886.601426 4252.255697
-2736.841289 -3935.145340 4187.923244
-2630.538311 -3763.696271 4405.458297
-2643.817421 -3766.456476 4398.750454
-2654.627088 -3755.231392 4406.256359
-2661.133199 -3793.256168 4365.348565
-2644.515318 -3755.832427 4409.451991
-2701.072344 -4003.609045 4129.444242
-2471.281896 -3405.204452 4765.975282
-2461.211891 -3455.030673 4735.454371
-2481.185105 -3297.657357 4834.545904
-2486.512789 -3592.022542 4620.631535
-2533.271846 -3690.218767 4510.118781
-2481.171282 -3312.844149 4824.709419
-2468.057359 -3384.705306 4780.200828
-2671.596669 -3947.979722 4201.336366
-2470.697098 -3367.508683 4790.949968
-2481.563009 -3282.083548 4844.504893
-2619.403903 -3805.468136 4366.604754
-2527.891436 -3681.524502 4520.525401
-2646.889127 -3851.668083 4309.731449
-2472.224660 -3324.856968 4818.517532
-2687.868348 -3983.082488 4157.691422
-2466.449310 -3611.430465 4609.235413
-2714.960538 -4012.859305 4112.817216
-2558.955968 -3726.468814 4465.803768
-2576.483010 -3748.087073 4438.572705
-2689.996463 -3994.909788 4143.869089
-2708.162628 -3985.791681 4146.237290
-2454.834543 -3418.291547 4761.178767
-2483.280195 -3263.268300 4856.231099
-2435.741441 -3470.149240 4732.265508
-2549.640377 -3686.285897 4508.685024
-2456.553786 -3400.104603 4772.636507
-2520.774750 -3670.350022 4533.947504
-2560.312966 -3698.702052 4492.896032
-2651.559124 -3899.130968 4259.223566
-2553.198946 -3713.711014 4480.346536
-2685.673352 -3930.842395 4212.923530
-2479.374993 -3340.735470 4806.824675
-2722.556817 -3997.902266 4126.983399
-2590.850272 -3781.765304 4400.126113
-2452.875084 -3439.190007 4748.007768
-2471.849553 -3424.180249 4753.209039
-2541.225105 -3675.996122 4521.625471
-2642.788114 -3887.616301 4274.315515
-2443.295932 -3455.905159 4739.599377
-2540.816165 -3700.407097 4497.560334
-2571.431182 -3719.379694 4468.771903
-2628.338632 -3846.830226 4321.190634
-2506.945888 -3657.688370 4551.001028
-2663.636000 -3883.971980 4269.967006
-2564.362638 -3735.677821 4454.889985
-2663.497863 -3937.600145 4215.338722
-2686.079379 -3913.227833 4230.838462
-2620.795063 -3833.762245 4337.267839
-2705.105771 -3969.422712 4164.908011
-2679.977804 -3959.715815 4185.703227
-2438.955494 -3507.233521 4705.073495
-2662.719701 -3923.007970 4230.499864
-2460.804901 -3524.643422 4685.701925
-2669.033158 -3905.976440 4245.239744
-2568.264358 -3707.023363 4482.053112
-2629.995067 -3860.219993 4306.863634
-2610.583713 -3781.522201 4393.733302
-2582.048126 -3731.801792 4452.933479
-2657.288750 -3874.080333 4282.601795
-2673.179221 -3893.060748 4256.870201
-2464.258985 -3579.095911 4639.690878
-2702.839729 -3957.497818 4178.264566
-2686.516660 -3969.617395 4172.592498
-2695.663841 -3945.445594 4193.717715
-2468.233182 -3352.029449 4801.573144
-2433.430391 -3487.922812 4720.709218
-2640.796064 -3869.935998 4292.989341
-2603.757575 -3768.861969 4408.734583
-2641.031084 -3835.676759 4328.377236
-2484.922067 -3248.274541 4865.448085
-2651.835346 -3914.468849 4243.619318
-2455.269835 -3509.070345 4699.326108
-2419.852713 -3552.276943 4677.902691
-2480.453762 -3583.841687 4629.836877
-2602.395014 -3797.188044 4380.739214
-2592.700111 -3766.385750 4414.930051
-2657.134453 -3862.388548 4294.893960
-2460.461096 -3550.812835 4664.070945
-2509.568987 -3633.884170 4573.442900
-2431.831563 -3560.039248 4667.258073
-2452.080159 -3567.487967 4653.740496
-2634.413792 -3822.475828 4344.186446
-2453.137149 -3473.348862 4725.363220
-2451.726289 -3490.973407 4713.550426
-2412.499465 -3542.055191 4688.647549
-2611.398509 -3821.993739 4352.520455
-2617.880885 -3791.165339 4381.549244
-2486.529563 -3233.964687 4874.153845
-2525.403860 -3654.507486 4548.010008
-2497.857850 -3646.295331 4565.184022
-2536.346912 -3663.450106 4535.587018
-2580.092799 -3761.818712 4423.676260
-2593.983068 -3752.195278 4428.666537
-2590.962651 -3740.611566 4441.206195
-2474.069091 -3569.928125 4643.653006
-2427.117057 -3528.932708 4692.759887
-2476.623213 -3602.039581 4614.876581
-2467.666033 -3592.032750 4627.129775
-2515.383972 -3646.421393 4559.264560
-2434.625336 -3542.797902 4679.576393
-2487.387161 -3627.508745 4586.948375
-2419.828769 -3510.302103 4709.279487
-2446.814838 -3529.359735 4685.768315
-2452.291098 -3594.134627 4630.180223
-2480.660415 -3577.695505 4634.941106
-2502.342048 -3616.366178 4592.809634
-2486.639589 -3602.283312 4611.331927
-2472.855282 -3615.075343 4603.678003
-2444.890659 -3309.144442 4832.461782
-2398.930629 -3596.882893 4642.578647
-2436.487012 -3351.628339 4806.253237
-2398.316580 -3466.343520 4743.997760
-2450.547965 -3233.603021 4879.744573
-2445.738172 -3279.990696 4850.940832
-2414.999530 -3430.921855 4761.156908
-2484.685030 -3683.512602 4531.460077
-2466.702440 -3664.283077 4556.333037
-2670.490787 -4035.976844 4103.781422
-2451.717077 -3650.361770 4574.721932
-2482.285759 -3670.291990 4545.815943
-2470.068209 -3676.757165 4542.525877
-2386.827573 -3543.491263 4694.460668
-2440.396338 -3330.085391 4819.555605
-2661.104858 -4011.903288 4135.721142
-2539.117129 -3766.619051 4431.065028
-2446.178444 -3251.789166 4868.802437
-2494.854520 -3698.956358 4512.570477
-2675.984842 -4049.101898 4084.871910
-2509.729359 -3706.493855 4500.625595
-2442.525198 -3294.563191 4841.989104
-2419.829168 -3414.077994 4770.144095
-2585.052107 -3849.710251 4332.260828
-2555.150085 -3793.119033 4399.451766
-2585.539446 -3871.210663 4310.135149
-2546.242982 -3779.697125 4415.730103
-2569.287215 -3823.965504 4363.544111
-2448.769288 -3266.057317 4859.461159
-2690.077574 -4038.435174 4092.021089
-2435.470149 -3371.017034 4794.226374
-2374.520853 -3494.059050 4732.727876
-2511.842096 -3720.230910 4485.857234
-2498.263055 -3713.594724 4496.441416
-2412.604601 -3585.488953 4649.991062
-2565.617289 -3807.358164 4381.784365
-2673.121425 -4021.653233 4119.875850
-2426.654185 -3392.860214 4781.812728
-2426.649419 -3624.465502 4607.855132
-2601.080492 -3905.354172 4270.230427
-2384.392216 -3523.682256 4710.542064
-2617.878953 -3944.536680 4223.760161
-2427.270130 -3612.092293 4620.012319
-2418.984070 -3598.903984 4635.251329
-2655.139907 -4026.527647 4121.044764
-2637.847123 -3968.343425 4191.966721
-2646.579461 -3992.374640 4162.576590
-2532.442658 -3755.966826 4443.736245
-2370.265941 -3513.882528 4720.813792
-2407.424197 -3448.238103 4752.592001
-2585.704336 -3831.460410 4350.937887
-2392.234650 -3574.523282 4665.552331
-2366.910218 -3549.336779 4694.290260
-2436.681571 -3629.506703 4600.028603
-2602.456251 -3889.220517 4286.541143
-2597.130749 -3861.002419 4317.061553
-2408.232522 -3608.001275 4629.249596
-2610.565746 -3915.618739 4256.649913
-2524.244059 -3734.662476 4467.638822
-2652.486654 -4001.164351 4150.821319
-2618.268719 -3901.454238 4269.058077
-2571.275145 -3837.790036 4348.621852
-2388.588165 -3504.071585 4723.086480
-2399.498635 -3582.661566 4656.066607
-2367.490576 -3531.381071 4708.745209
-2447.683556 -3636.623787 4589.822441
-2580.352736 -3860.990277 4322.120091
-2524.216588 -3746.282405 4455.782993
-2393.374444 -3482.330645 4735.669992
-2382.293087 -3563.567947 4677.985967
-2685.583112 -4029.387494 4105.393252
-2618.388327 -3929.085578 4240.103794
-2638.564352 -3983.294777 4175.208514
-2628.778183 -3936.269857 4229.354321
-2601.817101 -3873.483462 4302.878409
-2627.156891 -3950.170186 4214.942890
-2588.936237 -3881.612961 4298.450682
-2366.772981 -3450.355855 4758.628521
-2575.023745 -3916.162544 4263.879929
-2347.915628 -3479.372983 4746.517173
-2551.470311 -3862.549442 4327.051398
-2385.388600 -3409.023853 4777.694307
-2562.567128 -3891.772315 4293.055918
-2353.788524 -3464.343874 4753.506035
-2579.923082 -3929.444882 4248.084264
-2557.216508 -3880.285166 4306.629101
-2337.445841 -3496.161979 4738.956480
-2438.357484 -3695.936052 4531.119944
-2376.617768 -3429.071580 4768.312646
-2568.411885 -3903.269011 4279.339957
-2398.437962 -3387.382758 4788.042725
-2330.749245 -3515.070997 4728.019029
-2368.877152 -3606.707026 4639.588350
-2488.995861 -3756.859992 4454.275124
-2409.962860 -3331.707880 4820.606868
-2418.355215 -3238.564494 4879.578533
-2536.395358 -3832.822400 4362.052840
-2345.548378 -3570.324296 4678.996757
-2496.280992 -3769.048955 4439.559014
-2358.484236 -3580.098111 4667.282603
-2413.650770 -3298.306613 4841.624560
-2520.061720 -3807.962524 4392.103407
-2448.659378 -3703.640062 4520.354888
-2427.142654 -3689.943698 4540.246960
-2441.352491 -3689.112158 4537.567197
-2513.309449 -3796.354134 4406.195100
-2416.360208 -3260.053435 4865.992779
-2407.600290 -3348.025304 4810.618994
-2338.489558 -3557.766105 4691.945618
-2350.815251 -3578.574106 4670.287155
-2358.901913 -3594.380161 4653.770872
-2590.752753 -3952.263170 4220.401276
-2505.351750 -3782.497927 4423.024353
-2390.149737 -3648.701316 4592.653839
-2402.813734 -3367.845956 4798.972774
-2395.096108 -3636.975130 4603.169450
-2524.469818 -3818.333647 4379.922174
-2413.883809 -3663.963079 4570.898246
-2404.978965 -3653.814654 4583.629839
-2406.646049 -3644.757702 4592.327922
-2411.945260 -3314.674703 4831.267987
-2375.865040 -3617.972473 4626.916128
-2383.698514 -3628.598169 4614.465621
-2585.875085 -3941.412475 4233.577261
-2415.047783 -3279.328915 4853.710794
-2539.613260 -3848.197071 4344.745475
-2345.704736 -3587.346334 4663.705748
-2320.559497 -3529.988051 4719.017827
-2335.047746 -3536.260848 4711.259939
-2470.057515 -3724.438972 4492.775794
-2322.332003 -3545.809510 4705.887879
-2595.592294 -3962.441919 4207.939401
-2457.797913 -3712.847455 4508.256442
-2481.303839 -3742.967821 4470.758743
-2574.074896 -3970.976567 4198.645405
-2389.414595 -3686.700909 4552.248483
-2478.430660 -3795.660664 4412.862479
-2408.192731 -3710.632018 4522.057316
-2513.320005 -3852.414389 4343.396201
-2455.022045 -3769.380487 4446.911870
-2354.769747 -3650.107319 4599.065212
-2376.103375 -3674.263215 4568.619057
-2553.621957 -3936.062490 4242.082594
-2397.181731 -3699.580538 4536.546605
-2339.847146 -3636.398198 4616.488074
-2364.636891 -3662.562840 4583.690607
-2294.557063 -3549.671469 4706.725317
-2416.205619 -3723.143633 4506.551530
-2387.702767 -3229.196664 4886.675819
-2324.611249 -3611.439796 4644.945658
-2386.422286 -3277.290165 4856.195409
-2431.471632 -3736.954445 4488.021872
-2563.876543 -3953.174014 4220.867592
-2538.283361 -3903.014225 4282.434690
-2302.787808 -3562.531235 4694.765820
-2445.611484 -3751.281360 4469.140047
-2320.742904 -3459.674745 4760.352235
-2379.757059 -3329.816150 4823.985675
-2369.820383 -3357.530736 4808.389387
-2532.402695 -3892.653092 4295.046306
-2544.158604 -3911.282068 4272.294125
-2328.547358 -3445.273593 4766.982121
-2387.766020 -3261.403061 4866.220248
-2290.452918 -3531.116792 4721.791513
-2302.481931 -3554.571762 4701.928788
-2291.677097 -3563.721482 4695.546999
-2560.260639 -3941.472142 4235.287482
-2330.941133 -3620.940424 4634.169793
-2390.367399 -3246.228993 4875.811722
-2378.077279 -3344.870170 4815.235728
-2384.549884 -3294.764440 4845.278644
-2296.723410 -3508.523540 4736.067623
-2381.781926 -3314.998291 4832.862915
-2547.703768 -3920.192214 4261.467714
-2305.683710 -3490.790695 4745.091909
-2467.340207 -3781.874578 4430.447123
-2580.815223 -3983.964036 4182.310419
-2313.411670 -3600.058319 4658.023023
-2567.431359 -3961.191189 4210.905258
-2506.600790 -3836.398992 4362.425478
-2313.073431 -3473.635797 4753.695782
-2298.216847 -3574.563191 4684.598595
-2334.773298 -3433.759783 4772.119135
-2518.753887 -3867.626890 4325.356125
-2524.870606 -3881.779220 4308.374481
-2492.441767 -3809.908158 4394.428777
-2495.296743 -3817.097098 4385.884917
$EndNodes
$Elements
1 1430 1 1430
2 1 2 1430
1 33 384 32
2 42 387 41
3 388 16 385
4 16 388 15
5 386 34 35
6 72 71 385
7 389 387 42
8 392 14 15
9 43 389 42
10 17 18 382
11 70 69 392
12 99 98 387
13 389 99 387
14 100 99 389
15 395 32 384
16 73 396 74
17 397 72 385
18 397 382 396
19 382 397 385
20 398 41 387
21 41 398 40
22 402 34 386
23 38 405 37
24 406 100 389
25 43 406 389
26 388 392 15
27 70 388 71
28 392 388 70
29 71 388 385
30 34 402 33
31 16 17 385
32 17 382 385
33 27 28 390
34 31 32 395
35 395 407 31
36 407 30 31
37 400 395 384
38 400 393 395
39 400 402 383
40 402 400 384
41 33 402 384
42 406 43 44
43 100 406 101
44 395 393 407
45 407 399 30
46 73 72 397
47 396 73 397
48 408 87 86
49 408 417 410
50 417 394 410
51 401 84 83
52 393 410 407
53 399 410 394
54 410 399 407
55 412 390 28
56 28 29 412
57 412 399 394
58 92 415 93
59 417 408 86
60 86 85 417
61 88 87 418
62 87 408 418
63 406 419 101
64 424 418 393
65 85 84 403
66 85 403 417
67 417 403 394
68 84 401 403
69 91 90 411
70 419 44 45
71 44 419 406
72 29 30 399
73 412 29 399
74 414 421 415
75 424 400 383
76 400 424 393
77 98 430 387
78 430 398 387
79 414 432 421
80 433 421 432
81 36 433 432
82 421 433 405
83 35 414 386
84 432 414 35
85 36 432 35
86 102 101 419
87 98 97 430
88 36 37 433
89 37 405 433
90 90 434 411
91 383 434 424
92 434 383 411
93 97 437 430
94 83 82 401
95 435 403 401
96 437 97 96
97 398 430 437
98 79 78 422
99 414 442 386
100 448 425 422
101 448 22 23
102 416 448 422
103 95 94 443
104 452 13 14
105 69 68 452
106 392 452 14
107 69 452 392
108 457 27 390
109 435 457 390
110 458 80 404
111 80 458 81
112 458 438 81
113 416 427 413
114 421 405 443
115 423 60 61
116 25 463 24
117 463 425 24
118 464 93 415
119 421 464 415
120 425 23 24
121 23 425 448
122 413 448 416
123 448 413 22
124 404 463 458
125 463 404 425
126 465 401 82
127 464 94 93
128 94 464 443
129 464 421 443
130 401 465 435
131 457 465 438
132 465 457 435
133 466 411 442
134 1 467 3
135 467 68 3
136 404 79 422
137 404 80 79
138 425 404 422
139 412 435 390
140 428 115 114
141 467 1 13
142 91 411 466
143 466 415 92
144 91 466 92
145 449 413 427
146 416 78 77
147 416 422 78
148 468 111 446
149 409 443 405
150 19 20 391
151 427 76 449
152 13 452 467
153 452 68 467
154 457 26 27
155 427 77 76
156 416 77 427
157 74 469 75
158 469 74 396
159 470 26 457
160 438 470 457
161 410 418 408
162 418 410 393
163 112 111 468
164 39 456 38
165 82 438 465
166 438 82 81
167 434 90 89
168 424 434 89
169 469 396 391
170 470 25 26
171 470 438 458
172 25 470 463
173 470 458 463
174 471 112 468
175 20 472 391
176 472 469 391
177 409 95 443
178 471 113 112
179 113 450 114
180 472 20 21
181 472 449 469
182 473 382 18
183 473 391 396
184 382 473 396
185 19 473 18
186 19 391 473
187 437 409 456
188 474 429 459
189 429 474 460
190 462 468 431
191 21 413 472
192 22 413 21
193 413 449 472
194 446 111 110
195 75 449 76
196 449 75 469
197 398 476 40
198 456 476 437
199 476 398 437
200 49 50 451
201 450 113 471
202 54 441 53
203 63 477 62
204 38 456 405
205 456 409 405
206 39 40 476
207 456 39 476
208 439 429 454
209 429 439 459
210 95 437 96
211 437 95 409
212 426 420 475
213 455 480 477
214 63 64 455
215 477 63 455
216 442 411 383
217 114 450 428
218 475 479 426
219 468 446 431
220 104 484 105
221 51 451 50
222 439 451 51
223 481 454 429
224 429 460 481
225 446 110 460
226 483 122 121
227 455 64 483
228 483 64 65
229 121 120 483
230 67 124 123
231 107 453 108
232 106 105 484
233 486 47 48
234 487 454 453
235 487 478 451
236 402 442 383
237 442 402 386
238 415 442 414
239 442 415 466
240 47 486 488
241 488 486 485
242 88 424 89
243 424 88 418
244 445 104 103
245 53 459 52
246 474 459 53
247 435 394 403
248 435 412 394
249 483 480 455
250 480 483 120
251 67 123 66
252 56 461 440
253 482 423 436
254 120 119 480
255 124 2 4
256 2 124 67
257 52 439 51
258 459 439 52
259 55 440 447
260 482 444 426
261 441 474 53
262 49 486 48
263 426 428 420
264 426 444 428
265 122 66 123
266 122 65 66
267 483 65 122
268 106 485 478
269 484 485 106
270 450 420 428
271 482 479 423
272 426 479 482
273 488 104 445
274 488 484 104
275 485 484 488
276 487 453 478
277 447 54 55
278 441 54 447
279 115 444 116
280 115 428 444
281 436 423 61
282 481 110 109
283 460 110 481
284 475 57 58
285 475 420 57
286 117 436 118
287 482 436 117
288 478 107 106
289 453 107 478
290 439 487 451
291 439 454 487
292 56 440 55
293 440 468 462
294 462 440 447
295 447 462 431
296 471 420 450
297 461 420 471
298 479 58 59
299 475 58 479
300 423 59 60
301 423 479 59
302 451 486 49
303 481 109 454
304 460 431 446
305 474 431 460
306 485 451 478
307 485 486 451
308 47 445 46
309 488 445 47
310 461 468 440
311 461 471 468
312 420 56 57
313 461 56 420
314 477 61 62
315 477 436 61
316 46 419 45
317 445 419 46
318 419 103 102
319 419 445 103
320 474 447 431
321 474 441 447
322 118 480 119
323 453 109 108
324 453 454 109
325 116 482 117
326 116 444 482
327 436 480 118
328 436 477 480
329 184 380 6
330 77 78 490
331 81 491 80
332 492 71 72
333 133 496 134
334 76 498 75
335 495 129 492
336 183 182 489
337 129 128 492
338 492 499 71
339 498 76 496
340 76 77 496
341 77 490 496
342 499 492 128
343 72 73 495
344 492 72 495
345 503 129 495
346 183 506 184
347 506 183 489
348 182 509 489
349 510 489 509
350 502 111 112
351 495 73 503
352 130 129 503
353 131 130 503
354 506 380 184
355 181 509 182
356 70 71 499
357 127 126 512
358 513 139 138
359 128 127 499
360 515 134 496
361 515 490 511
362 490 515 496
363 521 503 73
364 74 521 73
365 522 510 123
366 510 522 489
367 509 504 510
368 69 70 512
369 127 512 499
370 512 70 499
371 157 156 494
372 517 514 98
373 97 98 514
374 160 159 507
375 496 133 498
376 123 124 522
377 489 522 506
378 181 180 504
379 509 181 504
380 510 122 123
381 137 136 524
382 136 135 511
383 524 136 511
384 135 134 515
385 511 135 515
386 79 525 78
387 79 80 525
388 525 524 511
389 501 526 494
390 526 514 494
391 172 527 173
392 491 528 524
393 528 137 524
394 153 532 154
395 533 518 527
396 160 534 161
397 534 508 161
398 535 177 176
399 510 538 122
400 538 510 504
401 98 99 517
402 75 521 74
403 521 131 503
404 164 163 523
405 514 526 97
406 138 137 528
407 513 138 528
408 497 178 177
409 497 539 178
410 529 157 494
411 529 514 517
412 514 529 494
413 529 517 519
414 159 158 519
415 507 159 519
416 101 530 100
417 530 507 519
418 170 169 531
419 158 157 529
420 519 158 529
421 507 534 160
422 534 507 530
423 535 497 177
424 497 535 520
425 536 117 118
426 520 536 118
427 538 121 122
428 133 132 498
429 174 173 518
430 173 527 518
431 176 541 535
432 517 544 519
433 544 530 519
434 502 545 531
435 547 508 534
436 530 547 534
437 548 533 527
438 551 121 538
439 552 539 551
440 538 552 551
441 554 132 131
442 521 554 131
443 172 556 527
444 556 172 171
445 526 96 97
446 178 539 179
447 541 176 175
448 541 543 536
449 116 117 536
450 544 517 99
451 171 170 545
452 170 531 545
453 546 105 106
454 547 530 101
455 169 168 537
456 531 169 537
457 114 115 533
458 549 533 115
459 549 518 533
460 518 549 543
461 551 120 121
462 520 553 497
463 553 539 497
464 539 553 551
465 555 139 513
466 555 140 139
467 556 548 527
468 545 502 556
469 171 545 556
470 523 557 546
471 175 560 541
472 560 543 541
473 501 156 155
474 494 156 501
475 116 549 115
476 542 561 84
477 548 113 114
478 566 113 548
479 533 548 114
480 556 566 548
481 552 504 180
482 504 552 538
483 180 179 552
484 179 539 552
485 554 75 498
486 75 554 521
487 132 554 498
488 107 108 500
489 558 110 111
490 558 531 537
491 126 125 559
492 68 69 559
493 512 126 559
494 69 512 559
495 85 542 84
496 560 174 518
497 174 560 175
498 543 560 518
499 99 100 544
500 100 530 544
501 564 166 165
502 104 105 557
503 105 546 557
504 101 102 547
505 163 565 523
506 557 523 565
507 119 120 553
508 120 551 553
509 566 112 113
510 112 566 502
511 566 556 502
512 574 144 143
513 572 528 491
514 513 528 572
515 555 513 572
516 572 573 555
517 555 573 540
518 108 109 571
519 167 575 168
520 537 168 575
521 166 575 167
522 162 161 508
523 540 573 561
524 116 543 549
525 543 116 536
526 83 561 573
527 561 83 84
528 564 523 546
529 565 104 557
530 525 490 78
531 525 511 490
532 537 571 558
533 537 575 571
534 576 500 564
535 546 576 564
536 3 577 5
537 577 125 5
538 577 3 68
539 500 576 107
540 526 501 516
541 559 125 577
542 68 559 577
543 155 516 501
544 165 164 523
545 564 165 523
546 106 107 576
547 546 106 576
548 568 93 94
549 580 96 526
550 516 580 526
551 162 581 163
552 581 565 163
553 580 516 578
554 579 532 153
555 152 579 153
556 95 96 580
557 578 95 580
558 508 581 162
559 94 95 578
560 582 103 104
561 582 565 581
562 565 582 104
563 508 582 581
564 573 82 83
565 82 573 572
566 102 583 547
567 508 583 582
568 583 508 547
569 516 155 154
570 102 103 583
571 103 582 583
572 493 89 90
573 144 574 562
574 493 563 89
575 144 562 145
576 522 124 4
577 578 588 94
578 588 578 532
579 588 568 94
580 590 579 152
581 579 588 532
582 579 568 588
583 574 143 142
584 585 574 142
585 542 85 86
586 493 586 587
587 574 589 562
588 589 574 585
589 590 568 579
590 140 591 141
591 141 591 142
592 585 591 540
593 591 585 142
594 592 567 589
595 593 149 148
596 590 595 568
597 597 505 586
598 154 532 516
599 532 578 516
600 590 152 151
601 569 562 589
602 567 569 589
603 592 561 542
604 592 540 561
605 540 592 585
606 589 585 592
607 550 594 563
608 81 572 491
609 572 81 82
610 591 555 540
611 555 591 140
612 506 4 380
613 4 506 522
614 493 587 563
615 587 550 563
616 520 119 553
617 119 520 118
618 500 571 575
619 571 500 108
620 520 541 536
621 541 520 535
622 500 166 564
623 166 500 575
624 110 571 109
625 110 558 571
626 567 570 569
627 584 570 567
628 586 493 596
629 596 90 91
630 493 90 596
631 595 91 92
632 595 596 91
633 87 567 86
634 87 584 567
635 89 594 88
636 89 563 594
637 149 505 150
638 593 505 149
639 505 587 586
640 593 587 505
641 584 550 570
642 584 594 550
643 145 569 146
644 145 562 569
645 524 80 491
646 524 525 80
647 502 558 111
648 502 531 558
649 596 597 586
650 150 505 597
651 88 584 87
652 594 584 88
653 593 550 587
654 86 592 542
655 86 567 592
656 568 92 93
657 568 595 92
658 597 595 590
659 596 595 597
660 150 590 151
661 597 590 150
662 570 550 147
663 147 593 148
664 550 593 147
665 146 570 147
666 146 569 570
667 602 7 5
668 125 602 5
669 208 599 209
670 128 129 598
671 603 127 128
672 7 602 185
673 197 196 604
674 599 208 207
675 188 187 603
676 130 598 129
677 605 154 155
678 605 609 154
679 598 190 189
680 609 153 154
681 609 605 610
682 606 610 215
683 612 190 598
684 130 612 598
685 131 612 130
686 612 191 190
687 191 600 192
688 606 609 610
689 153 606 152
690 609 606 153
691 615 185 602
692 610 216 215
693 610 605 216
694 214 213 608
695 606 215 214
696 611 142 143
697 181 182 613
698 615 186 185
699 615 187 186
700 156 616 155
701 616 605 155
702 617 247 246
703 618 156 157
704 618 616 156
705 598 619 128
706 619 603 128
707 619 598 189
708 620 196 195
709 196 620 604
710 626 603 187
711 615 626 187
712 627 617 607
713 157 630 618
714 600 191 612
715 132 600 131
716 131 600 612
717 189 188 619
718 188 603 619
719 630 157 158
720 125 126 615
721 602 125 615
722 136 137 604
723 218 217 616
724 161 162 614
725 626 615 126
726 217 216 605
727 616 217 605
728 139 601 138
729 627 6 381
730 6 627 184
731 628 132 133
732 628 600 132
733 600 628 192
734 193 192 628
735 225 224 624
736 133 134 628
737 220 219 630
738 631 618 630
739 618 631 616
740 219 631 630
741 633 625 227
742 134 635 628
743 635 193 628
744 225 624 622
745 226 225 622
746 226 633 227
747 163 164 622
748 625 228 227
749 219 218 631
750 218 616 631
751 622 633 226
752 135 136 620
753 136 604 620
754 634 613 182
755 183 634 182
756 126 127 626
757 127 603 626
758 135 635 134
759 635 194 193
760 635 195 194
761 635 135 620
762 195 635 620
763 638 142 611
764 636 211 210
765 638 141 142
766 162 624 614
767 222 645 223
768 645 614 223
769 146 147 632
770 624 163 622
771 624 162 163
772 148 641 147
773 632 641 599
774 632 147 641
775 607 642 634
776 244 642 245
777 642 244 243
778 642 613 634
779 613 642 243
780 239 643 240
781 235 234 637
782 149 636 640
783 202 201 646
784 604 647 197
785 647 604 137
786 166 648 625
787 648 166 167
788 654 209 599
789 641 654 599
790 658 173 174
791 138 647 137
792 138 601 647
793 210 640 636
794 641 148 640
795 607 245 642
796 614 645 161
797 645 160 161
798 224 223 614
799 624 224 614
800 651 212 211
801 207 206 649
802 650 204 203
803 651 149 150
804 636 149 651
805 211 636 651
806 167 168 648
807 168 621 648
808 171 172 652
809 148 149 640
810 653 169 170
811 209 654 210
812 654 640 210
813 640 654 641
814 236 235 655
815 235 637 655
816 655 658 174
817 232 231 623
818 160 656 159
819 205 204 650
820 657 181 613
821 181 657 180
822 242 241 644
823 173 658 172
824 658 655 637
825 246 607 617
826 607 246 245
827 644 657 242
828 180 644 179
829 180 657 644
830 659 648 621
831 660 141 638
832 646 660 638
833 638 662 646
834 653 664 621
835 645 665 160
836 665 656 160
837 665 645 222
838 141 660 140
839 629 660 646
840 145 146 632
841 632 661 145
842 661 599 207
843 599 661 632
844 649 661 207
845 203 662 650
846 611 662 638
847 662 611 650
848 203 202 662
849 202 646 662
850 168 169 621
851 169 653 621
852 664 231 230
853 231 664 623
854 664 653 623
855 222 221 665
856 150 151 663
857 651 150 663
858 608 606 214
859 659 228 625
860 228 659 229
861 648 659 625
862 199 629 200
863 666 629 199
864 601 666 199
865 198 601 199
866 652 658 637
867 658 652 172
868 201 629 646
869 629 201 200
870 666 139 140
871 139 666 601
872 667 649 206
873 667 650 611
874 238 237 639
875 184 668 183
876 607 668 627
877 668 184 627
878 668 634 183
879 607 634 668
880 649 145 661
881 144 649 667
882 649 144 145
883 647 198 197
884 198 647 601
885 669 236 655
886 237 236 669
887 639 237 669
888 670 644 241
889 206 205 667
890 205 650 667
891 671 669 175
892 669 671 639
893 176 671 175
894 171 672 170
895 673 239 238
896 672 653 170
897 623 653 672
898 617 381 8
899 617 627 381
900 247 617 8
901 174 175 669
902 655 174 669
903 652 672 171
904 621 664 230
905 639 673 238
906 673 639 671
907 656 665 221
908 241 240 670
909 240 643 670
910 672 674 623
911 674 672 652
912 164 633 622
913 633 164 165
914 229 621 230
915 621 229 659
916 176 673 671
917 673 176 177
918 220 656 221
919 152 608 151
920 608 152 606
921 608 663 151
922 611 144 667
923 144 611 143
924 234 652 637
925 652 234 233
926 674 652 233
927 656 158 159
928 233 232 674
929 232 623 674
930 608 212 663
931 212 608 213
932 651 663 212
933 643 177 178
934 179 643 178
935 643 179 670
936 644 670 179
937 656 220 630
938 158 656 630
939 657 243 242
940 243 657 613
941 643 673 177
942 673 643 239
943 166 633 165
944 625 633 166
945 660 666 140
946 629 666 660
947 309 245 310
948 245 246 310
949 310 246 311
950 260 675 261
951 675 198 199
952 676 299 298
953 235 676 234
954 196 679 195
955 678 230 231
956 199 200 677
957 296 680 297
958 677 681 199
959 681 675 199
960 675 681 261
961 681 262 261
962 262 681 677
963 680 683 232
964 678 683 295
965 677 263 262
966 300 299 682
967 299 676 682
968 235 236 682
969 676 235 682
970 684 200 201
971 200 684 677
972 258 257 679
973 233 680 232
974 686 260 259
975 263 677 684
976 231 232 683
977 678 231 683
978 296 295 683
979 680 296 683
980 686 679 196
981 197 686 196
982 686 675 260
983 687 297 680
984 233 687 680
985 257 688 679
986 688 195 679
987 298 687 676
988 687 298 297
989 233 234 687
990 234 676 687
991 256 688 257
992 195 688 194
993 259 258 679
994 686 259 679
995 197 675 686
996 675 197 198
997 286 285 691
998 286 696 287
999 699 290 289
1000 693 249 248
1001 691 696 286
1002 254 253 692
1003 190 191 692
1004 226 699 225
1005 222 223 696
1006 289 703 699
1007 703 225 699
1008 185 186 693
1009 704 693 186
1010 193 194 688
1011 703 289 288
1012 703 224 225
1013 265 264 689
1014 252 251 698
1015 188 189 698
1016 250 249 704
1017 249 693 704
1018 254 705 255
1019 705 191 192
1020 705 254 692
1021 191 705 692
1022 223 710 696
1023 256 712 688
1024 712 193 688
1025 709 302 301
1026 288 710 703
1027 710 224 703
1028 224 710 223
1029 186 187 704
1030 255 712 256
1031 712 255 705
1032 192 193 712
1033 705 192 712
1034 714 226 227
1035 226 714 699
1036 693 7 185
1037 718 189 190
1038 189 718 698
1039 252 718 253
1040 718 252 698
1041 210 211 713
1042 720 275 274
1043 287 710 288
1044 696 710 287
1045 684 264 263
1046 689 264 684
1047 693 9 7
1048 693 248 9
1049 236 721 682
1050 275 720 713
1051 301 721 709
1052 721 237 709
1053 237 721 236
1054 301 300 721
1055 300 682 721
1056 206 708 697
1057 722 187 188
1058 187 722 704
1059 250 722 251
1060 722 250 704
1061 227 228 694
1062 190 692 718
1063 692 253 718
1064 720 210 713
1065 294 723 678
1066 678 295 294
1067 209 719 208
1068 720 719 209
1069 210 720 209
1070 294 293 723
1071 690 208 719
1072 188 698 722
1073 698 251 722
1074 229 678 723
1075 678 229 230
1076 719 274 273
1077 274 719 720
1078 724 697 708
1079 697 724 707
1080 290 714 291
1081 290 699 714
1082 724 271 270
1083 708 271 724
1084 275 711 276
1085 713 711 275
1086 206 697 205
1087 708 272 271
1088 272 708 690
1089 215 216 702
1090 205 697 707
1091 702 216 685
1092 222 691 221
1093 691 222 696
1094 206 207 708
1095 207 690 708
1096 208 690 207
1097 265 725 266
1098 725 265 689
1099 707 724 270
1100 212 717 211
1101 716 717 212
1102 717 716 711
1103 714 227 694
1104 726 202 203
1105 717 713 211
1106 711 713 717
1107 702 685 701
1108 726 725 689
1109 689 201 202
1110 201 689 684
1111 726 689 202
1112 709 237 238
1113 267 728 268
1114 706 728 726
1115 728 706 268
1116 728 266 725
1117 266 728 267
1118 726 728 725
1119 203 706 726
1120 729 303 302
1121 729 238 239
1122 221 731 220
1123 203 204 706
1124 731 691 285
1125 691 731 221
1126 268 706 269
1127 706 695 269
1128 204 695 706
1129 302 709 729
1130 709 238 729
1131 214 715 213
1132 293 694 723
1133 694 293 292
1134 306 241 242
1135 241 306 305
1136 694 229 723
1137 229 694 228
1138 714 292 291
1139 292 714 694
1140 239 303 729
1141 244 309 308
1142 309 244 245
1143 307 242 243
1144 242 307 306
1145 312 8 10
1146 247 8 312
1147 243 308 307
1148 308 243 244
1149 247 311 246
1150 311 247 312
1151 305 240 241
1152 304 240 305
1153 304 239 240
1154 303 239 304
1155 279 701 280
1156 205 695 204
1157 205 707 695
1158 690 273 272
1159 719 273 690
1160 695 270 269
1161 695 707 270
1162 280 685 281
1163 280 701 685
1164 700 216 217
1165 685 216 700
1166 730 217 218
1167 700 217 730
1168 283 727 284
1169 283 730 727
1170 281 700 282
1171 281 685 700
1172 282 730 283
1173 282 700 730
1174 284 731 285
1175 284 727 731
1176 727 218 219
1177 730 218 727
1178 731 219 220
1179 727 219 731
1180 214 215 702
1181 702 701 214
1182 277 715 278
1183 277 716 715
1184 715 212 213
1185 715 716 212
1186 276 716 277
1187 276 711 716
1188 278 701 279
1189 715 701 278
1190 715 214 701
1191 308 374 307
1192 374 373 307
1193 351 737 352
1194 740 366 365
1195 740 299 300
1196 346 735 347
1197 739 733 344
1198 343 739 344
1199 278 279 733
1200 285 286 737
1201 280 281 735
1202 341 738 342
1203 274 275 738
1204 741 346 345
1205 733 741 345
1206 345 344 733
1207 741 733 279
1208 741 735 346
1209 738 742 274
1210 279 280 741
1211 280 735 741
1212 341 340 742
1213 738 341 742
1214 276 277 739
1215 739 743 276
1216 738 743 342
1217 277 278 733
1218 739 277 733
1219 343 342 743
1220 739 343 743
1221 745 735 281
1222 735 745 347
1223 273 274 742
1224 275 276 743
1225 738 275 743
1226 348 347 745
1227 9 746 11
1228 746 313 11
1229 748 250 251
1230 745 281 282
1231 282 749 745
1232 745 349 348
1233 749 349 745
1234 248 746 9
1235 315 748 316
1236 749 350 349
1237 282 283 749
1238 753 350 749
1239 748 760 250
1240 760 748 315
1241 744 266 267
1242 314 760 315
1243 271 272 747
1244 320 756 321
1245 753 284 285
1246 753 351 350
1247 262 754 261
1248 318 755 319
1249 755 253 254
1250 756 255 256
1251 340 339 742
1252 330 761 331
1253 249 250 760
1254 283 284 753
1255 749 283 753
1256 365 299 740
1257 373 306 307
1258 298 758 297
1259 764 740 300
1260 742 765 273
1261 765 742 339
1262 314 766 760
1263 766 249 760
1264 254 767 755
1265 767 319 755
1266 768 316 748
1267 251 768 748
1268 770 252 253
1269 771 298 299
1270 365 771 299
1271 265 266 761
1272 266 744 761
1273 248 766 746
1274 766 248 249
1275 746 314 313
1276 314 746 766
1277 254 255 767
1278 255 756 767
1279 768 317 316
1280 768 251 252
1281 264 265 769
1282 317 770 318
1283 770 317 768
1284 252 770 768
1285 298 771 758
1286 771 364 758
1287 364 771 365
1288 755 318 770
1289 253 755 770
1290 772 769 329
1291 328 772 329
1292 329 769 330
1293 769 761 330
1294 263 264 772
1295 264 769 772
1296 761 769 265
1297 773 737 286
1298 353 352 737
1299 737 773 353
1300 272 273 765
1301 747 272 765
1302 288 734 287
1303 286 287 773
1304 287 734 773
1305 759 261 754
1306 355 354 734
1307 375 374 308
1308 762 267 268
1309 297 758 751
1310 764 300 301
1311 754 327 326
1312 763 334 333
1313 370 774 371
1314 762 752 763
1315 773 354 353
1316 734 354 773
1317 338 765 339
1318 338 747 765
1319 762 744 267
1320 763 744 762
1321 775 271 747
1322 778 327 754
1323 292 293 736
1324 778 263 772
1325 778 328 327
1326 328 778 772
1327 779 335 334
1328 783 288 289
1329 288 783 734
1330 370 732 774
1331 270 271 775
1332 259 260 780
1333 373 372 306
1334 783 356 355
1335 783 784 356
1336 734 783 355
1337 289 290 783
1338 784 783 290
1339 357 356 784
1340 777 357 784
1341 358 357 777
1342 306 774 305
1343 256 321 756
1344 319 756 320
1345 756 319 767
1346 333 332 744
1347 763 333 744
1348 309 375 308
1349 309 376 375
1350 312 378 311
1351 378 312 379
1352 379 10 12
1353 10 379 312
1354 377 311 378
1355 377 310 311
1356 737 753 285
1357 753 737 351
1358 779 336 335
1359 323 258 259
1360 368 776 369
1361 368 750 776
1362 369 732 370
1363 369 776 732
1364 259 324 323
1365 780 324 259
1366 774 304 305
1367 775 337 336
1368 292 777 291
1369 292 736 777
1370 371 306 372
1371 371 774 306
1372 776 750 302
1373 780 325 324
1374 759 325 780
1375 367 750 368
1376 367 764 750
1377 258 322 257
1378 323 322 258
1379 750 301 302
1380 764 301 750
1381 257 321 256
1382 257 322 321
1383 759 326 325
1384 754 326 759
1385 761 332 331
1386 761 744 332
1387 310 376 309
1388 377 376 310
1389 757 363 362
1390 757 751 363
1391 751 364 363
1392 758 364 751
1393 782 362 361
1394 782 757 362
1395 763 779 334
1396 763 752 779
1397 778 262 263
1398 754 262 778
1399 762 268 752
1400 296 782 295
1401 296 757 782
1402 261 780 260
1403 261 759 780
1404 366 764 367
1405 366 740 764
1406 774 303 304
1407 732 303 774
1408 297 757 296
1409 297 751 757
1410 779 268 269
1411 779 752 268
1412 337 747 338
1413 337 775 747
1414 777 359 358
1415 777 736 359
1416 732 302 303
1417 732 776 302
1418 291 784 290
1419 291 777 784
1420 736 360 359
1421 736 781 360
1422 781 361 360
1423 781 782 361
1424 336 779 775
1425 775 269 270
1426 779 269 775
1427 294 736 293
1428 781 736 294
1429 295 781 294
1430 295 782 781
$EndElements
