$MeshFormat
4.1 0 8
$EndMeshFormat
$Nodes
1 784 1 784
2 1 0 784
1
2
3
4
5
6
7
8
9
10
11
12
13
14
15
16
17
18
19
20
21
22
23
24
25
26
27
28
29
30
31
32
33
34
35
36
37
38
39
40
41
42
43
44
45
46
47
48
49
50
51
52
53
54
55
56
57
58
59
60
61
62
63
64
65
66
67
68
69
70
71
72
73
74
75
76
77
78
79
80
81
82
83
84
85
86
87
88
89
90
91
92
93
94
95
96
97
98
99
100
101
102
103
104
105
106
107
108
109
110
111
112
113
114
115
116
117
118
119
120
121
122
123
124
125
126
127
128
129
130
131
132
133
134
135
136
137
138
139
140
141
142
143
144
145
146
147
148
149
150
151
152
153
154
155
156
157
158
159
160
161
162
163
164
165
166
167
168
169
170
171
172
173
174
175
176
177
178
179
180
181
182
183
184
185
186
187
188
189
190
191
192
193
194
195
196
197
198
199
200
201
202
203
204
205
206
207
208
209
210
211
212
213
214
215
216
217
218
219
220
221
222
223
224
225
226
227
228
229
230
231
232
233
234
235
236
237
238
239
240
241
242
243
244
245
246
247
248
249
250
251
252
253
254
255
256
257
258
259
260
261
262
263
264
265
266
267
268
269
270
271
272
273
274
275
276
277
278
279
280
281
282
283
284
285
286
287
288
289
290
291
292
293
294
295
296
297
298
299
300
301
302
303
304
305
306
307
308
309
310
311
312
313
314
315
316
317
318
319
320
321
322
323
324
325
326
327
328
329
330
331
332
333
334
335
336
337
338
339
340
341
342
343
344
345
346
347
348
349
350
351
352
353
354
355
356
357
358
359
360
361
362
363
364
365
366
367
368
369
370
371
372
373
374
375
376
377
378
379
380
381
382
383
384
385
386
387
388
389
390
391
392
393
394
395
396
397
398
399
400
401
402
403
404
405
406
407
408
409
410
411
412
413
414
415
416
417
418
419
420
421
422
423
424
425
426
427
428
429
430
431
432
433
434
435
436
437
438
439
440
441
442
443
444
445
446
447
448
449
450
451
452
453
454
455
456
457
458
459
460
461
462
463
464
465
466
467
468
469
470
471
472
473
474
475
476
477
478
479
480
481
482
483
484
485
486
487
488
489
490
491
492
493
494
495
496
497
498
499
500
501
502
503
504
505
506
507
508
509
510
511
512
513
514
515
516
517
518
519
520
521
522
523
524
525
526
527
528
529
530
531
532
533
534
535
536
537
538
539
540
541
542
543
544
545
546
547
548
549
550
551
552
553
554
555
556
557
558
559
560
561
562
563
564
565
566
567
568
569
570
571
572
573
574
575
576
577
578
579
580
581
582
583
584
585
586
587
588
589
590
591
592
593
594
595
596
597
598
599
600
601
602
603
604
605
606
607
608
609
610
611
612
613
614
615
616
617
618
619
620
621
622
623
624
625
626
627
628
629
630
631
632
633
634
635
636
637
638
639
640
641
642
643
644
645
646
647
648
649
650
651
652
653
654
655
656
657
658
659
660
661
662
663
664
665
666
667
668
669
670
671
672
673
674
675
676
677
678
679
680
681
682
683
684
685
686
687
688
689
690
691
692
693
694
695
696
697
698
699
700
701
702
703
704
705
706
707
708
709
710
711
712
713
714
715
716
717
718
719
720
721
722
723
724
725
726
727
728
729
730
731
732
733
734
735
736
737
738
739
740
741
742
743
744
745
746
747
748
749
750
751
752
753
754
755
756
757
758
759
760
761
762
763
764
765
766
767
768
769
770
771
772
773
774
775
776
777
778
779
780
781
782
783
784
231.761940 49.858001 0.000000
235.244000 40.333002 0.000000
232.131720 50.056671 -10.000000
235.610240 40.257973 -10.000000
232.546120 50.268312 -20.000000
236.077510 40.057766 -20.000000
232.919430 50.460142 -30.000000
236.578770 39.841921 -30.000000
233.236670 50.606855 -40.000000
236.826870 39.728929 -40.000000
233.521860 50.767316 -50.000000
237.053150 39.627027 -50.000000
231.912090 49.707382 0.000000
232.061840 49.556744 0.000000
232.209730 49.405479 0.000000
232.353320 49.252602 0.000000
232.482970 49.094650 0.000000
232.605210 48.934287 0.000000
232.748570 48.781823 0.000000
232.899990 48.632912 0.000000
233.054240 48.485462 0.000000
233.210440 48.339093 0.000000
233.348330 48.184953 0.000000
233.470670 48.025133 0.000000
233.584960 47.862736 0.000000
233.699350 47.700455 0.000000
233.807710 47.536385 0.000000
233.901420 47.368327 0.000000
233.968840 47.194637 0.000000
234.015510 47.017754 0.000000
234.059020 46.840492 0.000000
234.112190 46.664495 0.000000
234.168840 46.489017 0.000000
234.226080 46.313640 0.000000
234.282520 46.138150 0.000000
234.337800 45.962493 0.000000
234.392290 45.786739 0.000000
234.442170 45.610341 0.000000
234.487520 45.433345 0.000000
234.529200 45.255907 0.000000
234.565990 45.077935 0.000000
234.596920 44.899407 0.000000
234.620300 44.720307 0.000000
234.633030 44.540674 0.000000
234.634800 44.360800 0.000000
234.623000 44.181203 0.000000
234.572070 44.005201 0.000000
234.517290 43.829842 0.000000
234.504650 43.650418 0.000000
234.526480 43.471428 0.000000
234.622450 43.308873 0.000000
234.700750 43.139942 0.000000
234.718100 42.960673 0.000000
234.715070 42.780825 0.000000
234.706050 42.601066 0.000000
234.695460 42.421348 0.000000
234.685710 42.241602 0.000000
234.678920 42.061780 0.000000
234.678000 41.881888 0.000000
234.688600 41.702188 0.000000
234.724050 41.524388 0.000000
234.791380 41.351900 0.000000
234.885730 41.186722 0.000000
234.990570 41.025180 0.000000
235.076200 40.857529 0.000000
235.139010 40.683995 0.000000
235.191660 40.508516 0.000000
232.300620 49.914038 -10.000000
232.465440 49.769620 -10.000000
232.627170 49.623932 -10.000000
232.786510 49.477320 -10.000000
232.944060 49.330057 -10.000000
233.100240 49.182349 -10.000000
233.255530 49.034409 -10.000000
233.410440 48.886463 -10.000000
233.565540 48.738776 -10.000000
233.721590 48.591694 -10.000000
233.879660 48.445740 -10.000000
234.041620 48.301875 -10.000000
234.210320 48.161733 -10.000000
234.383030 48.023959 -10.000000
234.556170 47.886649 -10.000000
234.721600 47.745344 -10.000000
234.864950 47.593751 -10.000000
234.972560 47.429344 -10.000000
235.044710 47.256222 -10.000000
235.091470 47.079060 -10.000000
235.122070 46.900240 -10.000000
235.142290 46.720732 -10.000000
235.156080 46.540831 -10.000000
235.162940 46.360817 -10.000000
235.161670 46.180745 -10.000000
235.151630 46.000807 -10.000000
235.135760 45.821148 -10.000000
235.123170 45.641281 -10.000000
235.114700 45.461308 -10.000000
235.109790 45.281270 -10.000000
235.108070 45.101204 -10.000000
235.109230 44.921134 -10.000000
235.113020 44.741082 -10.000000
235.119220 44.561062 -10.000000
235.127600 44.381086 -10.000000
235.137980 44.201162 -10.000000
235.150190 44.021295 -10.000000
235.164100 43.841491 -10.000000
235.179570 43.661751 -10.000000
235.196470 43.482078 -10.000000
235.214700 43.302471 -10.000000
235.234170 43.122933 -10.000000
235.254780 42.943464 -10.000000
235.276450 42.764037 -10.000000
235.295950 42.584472 -10.000000
235.310280 42.404661 -10.000000
235.320620 42.224698 -10.000000
235.329050 42.044678 -10.000000
235.338090 41.864673 -10.000000
235.350370 41.684778 -10.000000
235.368070 41.505138 -10.000000
235.392520 41.325946 -10.000000
235.424110 41.147391 -10.000000
235.462580 40.969574 -10.000000
235.505540 40.792371 -10.000000
235.547570 40.615052 -10.000000
235.584090 40.437037 -10.000000
232.712980 50.122745 -20.000000
232.877950 49.976485 -20.000000
233.042100 49.830031 -20.000000
233.206160 49.683722 -20.000000
233.370600 49.537785 -20.000000
233.535940 49.392471 -20.000000
233.702730 49.248062 -20.000000
233.871550 49.104870 -20.000000
234.043220 48.963360 -20.000000
234.218870 48.824200 -20.000000
234.400280 48.688544 -20.000000
234.590040 48.558221 -20.000000
234.789390 48.434684 -20.000000
234.994000 48.315304 -20.000000
235.199010 48.196531 -20.000000
235.400450 48.075378 -20.000000
235.591690 47.947338 -20.000000
235.755160 47.803460 -20.000000
235.863890 47.638172 -20.000000
235.908260 47.459659 -20.000000
235.912140 47.278343 -20.000000
235.904300 47.097037 -20.000000
235.891550 46.915855 -20.000000
235.876020 46.734774 -20.000000
235.858700 46.553771 -20.000000
235.840200 46.372826 -20.000000
235.820880 46.191925 -20.000000
235.801090 46.011053 -20.000000
235.781150 45.830192 -20.000000
235.761370 45.649326 -20.000000
235.742490 45.468413 -20.000000
235.727030 45.287356 -20.000000
235.720820 45.106055 -20.000000
235.720080 44.924682 -20.000000
235.723230 44.743318 -20.000000
235.729370 44.561989 -20.000000
235.737890 44.380706 -20.000000
235.748380 44.199473 -20.000000
235.760540 44.018290 -20.000000
235.774150 43.837157 -20.000000
235.789100 43.656076 -20.000000
235.805270 43.475047 -20.000000
235.822610 43.294071 -20.000000
235.841180 43.113159 -20.000000
235.864110 42.932531 -20.000000
235.892810 42.752343 -20.000000
235.925310 42.572502 -20.000000
235.960250 42.392912 -20.000000
235.996690 42.213486 -20.000000
236.033770 42.034135 -20.000000
236.070700 41.854768 -20.000000
236.106610 41.675285 -20.000000
236.140310 41.495564 -20.000000
236.169980 41.315442 -20.000000
236.192570 41.134730 -20.000000
236.207100 40.953565 -20.000000
236.212590 40.772113 -20.000000
236.207050 40.590665 -20.000000
236.187160 40.409821 -20.000000
236.147340 40.230966 -20.000000
233.077070 50.310321 -30.000000
233.233880 50.160303 -30.000000
233.390630 50.010421 -30.000000
233.547590 49.860801 -30.000000
233.705110 49.711600 -30.000000
233.863760 49.563080 -30.000000
234.024590 49.415734 -30.000000
234.190090 49.270799 -30.000000
234.368960 49.133142 -30.000000
234.560040 49.002930 -30.000000
234.761560 48.880032 -30.000000
234.973900 48.765653 -30.000000
235.194480 48.658642 -30.000000
235.419840 48.556455 -30.000000
235.647930 48.457314 -30.000000
235.876500 48.359087 -30.000000
236.088300 48.245987 -30.000000
236.260990 48.106900 -30.000000
236.378480 47.944158 -30.000000
236.442470 47.768357 -30.000000
236.468470 47.588018 -30.000000
236.480510 47.406938 -30.000000
236.482230 47.225676 -30.000000
236.474730 47.044478 -30.000000
236.459380 46.863511 -30.000000
236.437690 46.682851 -30.000000
236.411430 46.502483 -30.000000
236.382620 46.322311 -30.000000
236.353550 46.142168 -30.000000
236.327300 45.961812 -30.000000
236.305510 45.781205 -30.000000
236.285580 45.600490 -30.000000
236.267020 45.419703 -30.000000
236.249880 45.238847 -30.000000
236.234720 45.057900 -30.000000
236.224510 44.876778 -30.000000
236.237030 44.695853 -30.000000
236.251420 44.514881 -30.000000
236.265650 44.333900 -30.000000
236.279790 44.152911 -30.000000
236.293960 43.971919 -30.000000
236.308310 43.790931 -30.000000
236.323080 43.609955 -30.000000
236.338870 43.429020 -30.000000
236.357840 43.248241 -30.000000
236.387050 43.068246 -30.000000
236.418250 42.888410 -30.000000
236.449380 42.708561 -30.000000
236.480030 42.528665 -30.000000
236.510060 42.348708 -30.000000
236.539310 42.168680 -30.000000
236.567750 41.988576 -30.000000
236.595160 41.808382 -30.000000
236.621450 41.628092 -30.000000
236.646400 41.447692 -30.000000
236.669730 41.267166 -30.000000
236.691090 41.086499 -30.000000
236.710150 40.905621 -30.000000
236.735320 40.725240 -30.000000
236.757610 40.544654 -30.000000
236.760670 40.363353 -30.000000
236.733530 40.183298 -30.000000
236.672100 40.008321 -30.000000
233.397900 50.457865 -40.000000
233.551970 50.305989 -40.000000
233.702740 50.152925 -40.000000
233.854780 50.000553 -40.000000
234.011480 49.850331 -40.000000
234.174220 49.703003 -40.000000
234.342900 49.558717 -40.000000
234.516720 49.417233 -40.000000
234.704020 49.283640 -40.000000
234.912610 49.164607 -40.000000
235.135940 49.057977 -40.000000
235.368180 48.960259 -40.000000
235.605200 48.868037 -40.000000
235.844370 48.778676 -40.000000
236.084000 48.690269 -40.000000
236.322170 48.600511 -40.000000
236.542790 48.493477 -40.000000
236.735020 48.364867 -40.000000
236.882190 48.212673 -40.000000
236.960440 48.039075 -40.000000
237.007450 47.860233 -40.000000
237.031970 47.679349 -40.000000
237.038810 47.497748 -40.000000
237.032360 47.316128 -40.000000
237.016240 47.134780 -40.000000
236.993290 46.953776 -40.000000
236.965780 46.773074 -40.000000
236.935430 46.592596 -40.000000
236.904180 46.412201 -40.000000
236.875260 46.231638 -40.000000
236.848510 46.050919 -40.000000
236.823500 45.870085 -40.000000
236.799970 45.689159 -40.000000
236.777820 45.508153 -40.000000
236.757030 45.327070 -40.000000
236.737610 45.145915 -40.000000
236.719710 44.964685 -40.000000
236.703500 44.783376 -40.000000
236.689350 44.601981 -40.000000
236.677910 44.420487 -40.000000
236.670550 44.238883 -40.000000
236.671050 44.057215 -40.000000
236.683770 43.875803 -40.000000
236.700410 43.694540 -40.000000
236.718580 43.513346 -40.000000
236.737590 43.332192 -40.000000
236.757110 43.151061 -40.000000
236.776970 42.969945 -40.000000
236.797060 42.788838 -40.000000
236.817310 42.607738 -40.000000
236.837640 42.426638 -40.000000
236.858020 42.245537 -40.000000
236.878400 42.064431 -40.000000
236.898740 41.883319 -40.000000
236.919000 41.702196 -40.000000
236.939120 41.521059 -40.000000
236.958970 41.339897 -40.000000
236.978120 41.158681 -40.000000
236.998950 40.977579 -40.000000
237.017870 40.796383 -40.000000
237.028410 40.614793 -40.000000
237.027610 40.433030 -40.000000
237.012300 40.251656 -40.000000
236.978200 40.071826 -40.000000
236.919240 39.895920 -40.000000
233.673930 50.614757 -50.000000
233.828210 50.463240 -50.000000
233.984810 50.312856 -50.000000
234.143990 50.163762 -50.000000
234.306240 50.016225 -50.000000
234.472380 49.870689 -50.000000
234.643580 49.727836 -50.000000
234.821760 49.588843 -50.000000
235.010460 49.456129 -50.000000
235.216450 49.335229 -50.000000
235.440630 49.229361 -50.000000
235.674080 49.132782 -50.000000
235.912170 49.041604 -50.000000
236.152310 48.953184 -50.000000
236.392460 48.865182 -50.000000
236.630090 48.774684 -50.000000
236.859750 48.676060 -50.000000
237.063430 48.555559 -50.000000
237.244050 48.419937 -50.000000
237.388930 48.266866 -50.000000
237.485150 48.097691 -50.000000
237.536190 47.919821 -50.000000
237.546660 47.738809 -50.000000
237.529730 47.557891 -50.000000
237.501170 47.377615 -50.000000
237.474400 47.197236 -50.000000
237.453180 47.016507 -50.000000
237.432950 46.835728 -50.000000
237.410990 46.655048 -50.000000
237.385260 46.474606 -50.000000
237.355310 46.294546 -50.000000
237.324110 46.114537 -50.000000
237.292540 45.934571 -50.000000
237.261190 45.754597 -50.000000
237.230560 45.574571 -50.000000
237.201110 45.394459 -50.000000
237.173180 45.214235 -50.000000
237.147200 45.033874 -50.000000
237.123500 44.853362 -50.000000
237.102450 44.672689 -50.000000
237.084360 44.491857 -50.000000
237.069580 44.310873 -50.000000
237.058350 44.129758 -50.000000
237.052080 43.948530 -50.000000
237.051770 43.767251 -50.000000
237.055610 43.585983 -50.000000
237.062250 43.404751 -50.000000
237.070960 43.223558 -50.000000
237.081270 43.042406 -50.000000
237.092860 42.861290 -50.000000
237.105490 42.680206 -50.000000
237.118990 42.499151 -50.000000
237.133230 42.318121 -50.000000
237.148090 42.137113 -50.000000
237.163480 41.956125 -50.000000
237.179320 41.775152 -50.000000
237.195510 41.594191 -50.000000
237.211960 41.413233 -50.000000
237.228410 41.232264 -50.000000
237.243840 41.051219 -50.000000
237.255900 40.870076 -50.000000
237.265620 40.688848 -50.000000
237.271480 40.507517 -50.000000
237.270180 40.326136 -50.000000
237.250310 40.145454 -50.000000
237.217930 39.965929 -50.000000
237.147550 39.793037 -50.000000
235.844200 40.158137 -15.000000
236.328510 39.950149 -25.000000
232.754450 49.080207 -3.722392
234.723080 46.547024 -5.868866
234.307690 46.623271 -1.869491
232.647500 49.285313 -4.976399
234.462440 46.259993 -2.355476
234.848390 45.046910 -4.999097
232.465140 49.414525 -4.156820
234.854600 44.856923 -4.924566
234.060420 47.490730 -2.155448
232.957080 48.817758 -3.123630
232.323670 49.594904 -4.834544
234.562780 46.824985 -4.841356
234.459160 47.296153 -4.986231
234.280010 46.791486 -2.053535
233.012690 49.013078 -6.398085
232.878440 49.194474 -7.038095
234.757250 45.239244 -3.559155
234.259350 47.118281 -2.574594
234.509270 46.672057 -4.030840
234.573460 47.679650 -7.848123
234.441390 46.469673 -2.782254
234.648270 47.483919 -7.415858
233.984850 48.116025 -6.272096
234.659350 45.743623 -3.074851
234.871680 44.639610 -5.019875
234.272610 46.946665 -2.313959
234.857300 47.117042 -8.038092
234.859210 45.683401 -5.552643
234.575430 47.057518 -5.368900
234.937840 46.443899 -7.819337
234.175810 47.333364 -2.498249
233.358910 48.478404 -3.716245
234.623810 46.100640 -3.650612
234.927510 46.083063 -7.102784
233.617350 48.468736 -6.901004
234.748030 47.264989 -7.466204
234.844210 46.928018 -7.573508
234.885970 44.397154 -5.025180
235.018930 42.260977 -4.108903
234.771430 45.923962 -4.908693
233.783690 48.315559 -6.807261
234.889700 41.761176 -2.500418
234.834780 46.695907 -7.194178
233.692820 48.154686 -3.294515
235.074510 42.084858 -4.733568
233.471990 48.609448 -6.989467
235.129760 42.111630 -7.162037
234.962090 43.095620 -5.260592
234.947920 45.203509 -6.963140
234.903350 42.778073 -4.672651
234.515750 46.017991 -2.188077
234.556360 45.894889 -2.269377
234.941620 46.580078 -8.049049
234.327880 47.555322 -4.924358
235.028860 41.539734 -4.171735
234.917770 45.438656 -6.470595
234.246790 47.859770 -6.128796
234.756700 43.212849 -2.959510
234.911480 42.553690 -3.760765
234.788280 42.881280 -2.058146
234.731750 46.302906 -5.372416
234.930060 45.814603 -6.747148
235.179020 41.925226 -7.571389
234.914520 44.121494 -5.277241
235.133530 42.804034 -7.538890
234.833380 42.783255 -2.319796
233.506570 48.324961 -3.360016
233.365420 48.663432 -6.348617
235.102350 42.284280 -7.010575
234.683970 43.415886 -2.073197
232.182650 49.733332 -4.909908
235.082160 43.289637 -7.235034
235.029630 43.168372 -6.092415
235.027070 41.149948 -3.298709
234.682620 45.548062 -2.847848
234.054750 47.689846 -3.200714
234.137210 47.984009 -6.286107
234.726780 43.061999 -2.442285
235.115950 42.927825 -7.312590
234.934900 42.508765 -3.623750
234.855460 42.706972 -3.743438
233.812690 48.002769 -3.048318
234.993620 45.937415 -7.757295
234.366190 47.751582 -6.407830
234.986950 46.268688 -8.056676
232.046220 49.865032 -4.987988
235.068760 42.620980 -6.746973
233.202960 48.827313 -6.448098
233.924920 47.851053 -2.997662
235.085960 42.449181 -6.917079
233.145010 48.640256 -3.193542
232.827000 48.932464 -2.878775
234.868880 42.905748 -4.291216
234.853950 42.144054 -1.922511
234.694080 45.386283 -2.745778
234.991110 41.388822 -3.645311
234.920770 43.463465 -4.522749
234.887970 41.987779 -2.390605
235.223590 41.331806 -6.545036
235.150710 43.007388 -8.001668
235.137110 41.914881 -5.594060
235.181900 41.143862 -5.910041
235.049370 43.813171 -7.572918
234.933540 43.708049 -5.077404
234.742960 43.775208 -2.020264
234.948680 43.292449 -4.942322
234.850280 43.829203 -3.661047
235.994060 40.531594 -16.711138
234.030230 48.561605 -13.549885
234.535600 48.145964 -13.380239
233.041890 49.515425 -14.612845
235.307780 46.605455 -12.100128
235.531070 45.217109 -16.761083
233.168440 49.374659 -14.195121
233.901240 48.771319 -15.069140
235.913800 41.391138 -16.851756
233.732990 48.918719 -15.084608
232.907300 49.657397 -14.943436
235.459340 43.385888 -14.105977
235.524850 45.348568 -16.552135
235.502920 42.681274 -13.708577
233.367050 49.309044 -16.105836
235.987690 40.868168 -16.790346
235.668630 46.504549 -17.193795
235.919090 40.327202 -15.741077
235.522720 44.651333 -16.613424
235.494870 44.300892 -15.895826
236.045410 40.709018 -17.494179
235.805690 40.709765 -13.959509
234.316110 48.526334 -16.493490
232.729610 49.821692 -15.012192
234.934500 48.142638 -17.331063
235.330110 45.169312 -13.515402
234.152130 48.687673 -16.991262
235.518950 45.518543 -16.280919
235.308270 44.964929 -13.192665
235.782790 42.090830 -16.869573
235.491240 44.831896 -16.160943
235.657900 41.506769 -13.871092
233.418510 49.124089 -13.848335
235.745280 40.471811 -12.735290
235.585340 43.826702 -16.838863
234.503040 48.340596 -15.828732
234.175210 48.379380 -12.694663
235.343800 45.336222 -13.652328
235.792270 42.279196 -17.444882
234.740010 48.235751 -16.727600
235.525280 45.056257 -16.725185
235.341560 44.662505 -13.644736
235.657240 42.845720 -16.556260
235.573620 45.743791 -16.861801
235.557590 42.197167 -13.892693
235.532280 44.513824 -16.687346
235.924530 41.564188 -17.418623
235.533900 41.713083 -12.669355
235.643130 43.044259 -16.616315
235.726120 40.926965 -13.298164
235.909440 41.199445 -16.336998
235.184970 47.762551 -15.930569
235.833520 41.741352 -16.694622
235.078360 47.466599 -12.189219
235.654410 41.903644 -14.707808
235.285380 44.823404 -12.792381
235.733120 42.677438 -17.477606
235.380640 43.716605 -13.331417
235.320490 44.458008 -13.175395
235.553200 42.352652 -14.085649
235.524470 42.031683 -13.110960
235.452030 46.875953 -14.174430
235.668220 41.083597 -12.932183
235.911050 41.040043 -16.020678
235.657770 41.271478 -13.295009
233.634300 49.076342 -16.208019
235.097550 47.984199 -17.081167
235.690860 42.499213 -16.476732
235.360940 43.903357 -13.263400
235.450890 42.905575 -13.145733
232.584100 49.950537 -15.002026
235.884540 41.908746 -17.764447
235.019810 47.655413 -12.887818
235.736850 47.422381 -18.273639
235.312060 46.729063 -12.386817
235.575290 43.580417 -16.318819
235.457300 43.995579 -14.950689
235.473930 42.493551 -12.971774
235.280790 47.193434 -13.665781
235.370950 46.001923 -13.372249
235.663360 47.270033 -17.183657
235.497670 47.070870 -15.139074
235.425760 43.099656 -13.059031
234.767420 48.016334 -14.028099
234.919460 47.854026 -13.688088
235.741160 47.571561 -18.856702
235.656940 43.237214 -17.145058
235.374090 43.562005 -12.996482
232.444050 50.072637 -15.000270
235.354050 45.674347 -13.525293
235.587300 45.926913 -16.814873
235.303660 45.508580 -12.897144
235.555210 44.120605 -16.704561
235.342960 44.153193 -13.264172
235.291300 44.304843 -12.574502
235.276860 46.913299 -12.626157
235.480720 47.613707 -17.555373
235.489090 46.552596 -14.472840
235.511590 46.715723 -14.711391
235.401210 45.824838 -14.079454
235.502990 47.429148 -16.690225
235.561520 46.202123 -16.001182
235.419540 47.843909 -18.433164
235.267420 47.494359 -14.923561
235.694140 46.780215 -17.252740
235.263790 46.792961 -12.048807
235.318730 46.243182 -12.248519
235.382860 46.492138 -12.996882
235.626320 46.426731 -16.660212
233.541950 49.588939 -24.298956
236.298810 47.038309 -27.028751
233.984490 49.234112 -25.139013
235.321160 48.378205 -24.900839
232.843760 50.258183 -24.876701
233.289800 49.854558 -25.009051
234.858580 48.612720 -24.972691
235.998670 45.563523 -24.658123
236.052560 45.888337 -24.996365
236.508530 40.297234 -25.792983
236.113240 46.133018 -25.597063
235.928790 45.733500 -22.990196
236.106550 45.722254 -26.370653
236.036550 47.694961 -23.462118
233.764810 49.415762 -24.889441
236.443590 40.664594 -24.265688
236.015680 44.288371 -25.224070
233.047460 50.112525 -25.674246
236.001310 45.324913 -25.145485
236.539940 40.085319 -27.318137
235.897410 45.155562 -23.365094
233.447480 49.734961 -25.534340
234.671760 48.740696 -25.467994
236.118930 43.053409 -25.036929
236.034700 43.889019 -24.999701
236.261470 42.795580 -26.825410
236.033300 44.095773 -25.282072
236.103210 43.445741 -25.571238
233.138790 49.968634 -24.507726
236.331670 40.141067 -23.550701
234.152890 49.059951 -24.357012
235.800440 48.247130 -27.065017
235.973390 44.981111 -24.947379
236.069920 45.132301 -26.704178
236.064170 47.096160 -22.865717
236.025640 43.663556 -24.473195
236.388720 40.469233 -23.350837
234.426750 48.900628 -25.459524
236.196930 46.571282 -26.103902
236.335220 42.303954 -26.531635
235.914720 47.911362 -23.491086
236.428880 41.738709 -26.489796
236.099510 46.711828 -24.082256
236.093190 46.908439 -23.626630
236.598670 40.511626 -27.049908
236.387120 41.338942 -24.459842
236.459260 40.991504 -25.097229
236.010370 44.449480 -25.344444
235.998630 48.080960 -26.584037
235.078770 48.495004 -24.885598
235.986110 43.267631 -23.038415
236.207750 47.327105 -25.341495
236.302270 47.735563 -27.781842
236.124430 46.458618 -25.056482
236.211700 42.489764 -24.879158
236.072970 42.853882 -23.603033
236.278080 46.861020 -26.931203
236.308380 42.129388 -25.435242
235.945390 44.744156 -24.401815
236.458460 40.848680 -24.794895
236.134410 42.257792 -22.651150
236.178370 43.269726 -26.663924
235.719280 48.080138 -23.447953
236.187680 47.197338 -24.976533
236.161510 47.920970 -26.873162
236.056890 46.316332 -24.137988
236.244650 42.944830 -27.011646
236.028210 44.606990 -25.899266
235.499610 48.258385 -24.234035
236.236740 47.500364 -26.089475
236.316580 40.291635 -22.569172
236.320050 41.924453 -24.965719
236.479210 41.148656 -25.842377
236.263620 41.781443 -23.391545
236.110760 42.680380 -23.710109
236.373140 41.620242 -25.013757
236.297730 42.653486 -27.011642
235.551810 48.676034 -34.509231
236.673580 42.294146 -34.774909
235.988130 48.512833 -34.741686
236.552590 43.067935 -34.387124
235.018450 48.948636 -35.553268
236.636790 42.654971 -35.151899
235.806530 48.616704 -35.558538
236.712630 42.104561 -35.168555
236.614000 42.822058 -35.147772
236.234310 48.412676 -35.030448
236.585560 45.660656 -35.656405
235.274980 48.814909 -35.098375
236.654460 42.485221 -34.991868
234.699580 49.079542 -34.422079
236.452710 48.265668 -35.206435
236.703180 47.075435 -34.936980
236.474720 44.665683 -34.623726
234.120220 49.535957 -34.877451
233.249950 50.364221 -34.831711
236.505140 43.503597 -34.491976
236.696820 47.604329 -35.242474
236.483070 44.480869 -34.847141
236.624050 47.430936 -33.565403
233.803900 49.830194 -34.923538
236.503910 43.885888 -35.239431
236.529340 45.514326 -34.874151
236.664190 45.790646 -36.921660
236.504510 45.727535 -33.866061
236.494150 44.061777 -35.103508
233.454060 50.174076 -35.020930
234.279690 49.395803 -34.765495
236.683420 47.779266 -35.340070
236.698530 47.485865 -35.062257
236.724110 47.267271 -35.262450
236.754710 41.767131 -35.057219
236.481350 44.271413 -34.816418
236.772450 46.476405 -37.098647
234.493770 49.235770 -34.909730
236.633470 46.588339 -34.341381
236.529540 43.737012 -35.675387
236.622400 46.171838 -35.025626
236.646670 46.338811 -35.074823
236.563080 46.436554 -33.360088
233.958240 49.685366 -34.936657
236.707730 46.909636 -35.164431
236.698290 46.745665 -35.225679
236.731990 41.926767 -35.018728
233.630370 50.000692 -34.994760
236.577230 43.299158 -35.775501
236.820010 47.415394 -36.843724
236.679700 48.165327 -37.364293
236.562600 48.029552 -34.316406
236.447560 45.151527 -33.992495
236.777160 47.990384 -37.646091
236.773250 41.615819 -35.007629
236.496590 45.355603 -34.567017
236.458640 44.872298 -34.253154
237.047800 41.580540 -44.615590
237.052030 46.017964 -44.545072
236.856900 44.229505 -44.625551
237.016510 45.630621 -45.086266
236.879520 43.357958 -44.629427
236.923540 44.670386 -45.623515
237.172990 46.635291 -44.893391
237.109720 46.236118 -44.993558
237.025470 42.117875 -45.746032
237.058360 45.821224 -45.367106
237.240670 46.872769 -45.635294
237.152760 46.435530 -45.172484
237.120810 48.075619 -44.988392
237.017670 45.436198 -45.744685
233.520380 50.585221 -45.777778
237.231430 47.242194 -44.718705
233.939040 50.143914 -45.000000
236.949720 45.190030 -44.925139
237.034110 41.854241 -45.118959
236.962470 42.608095 -45.207612
237.121740 47.900394 -43.655644
236.898050 44.942803 -44.362652
236.146370 48.809653 -45.168010
234.447320 49.687903 -44.724868
234.784700 49.480178 -45.680262
236.953600 42.765091 -45.398505
236.957340 42.478367 -44.597586
235.946530 48.900910 -45.167132
233.791080 50.285804 -45.000000
237.030610 48.286801 -45.632385
237.066760 47.989884 -42.924638
237.256660 47.938883 -46.440226
236.993470 42.022716 -44.247497
237.229030 47.100028 -44.861700
233.633850 50.415790 -44.437037
234.588600 49.558723 -44.081073
234.105270 49.989877 -45.000000
236.790740 48.477682 -45.257958
234.303260 49.814959 -44.969430
236.980460 42.348538 -44.957907
236.555050 48.598956 -45.045979
236.879090 44.454858 -44.926595
237.064800 41.382337 -44.524117
237.275040 47.426572 -45.695901
237.050860 41.734687 -45.301421
236.840470 43.589463 -43.934267
236.340590 48.719878 -45.331819
237.261560 47.787322 -46.067852
235.786390 48.972701 -45.259439
236.926210 43.141442 -45.546300
236.958350 42.935055 -46.027893
236.807290 43.986159 -43.388254
236.826720 43.882826 -43.858260
$EndNodes
$Elements
1 1430 1 1430
2 1 2 1430
1 33 384 32
2 42 387 41
3 388 16 385
4 16 388 15
5 386 34 35
6 72 71 385
7 389 387 42
8 392 14 15
9 43 389 42
10 17 18 382
11 70 69 392
12 99 98 387
13 389 99 387
14 100 99 389
15 395 32 384
16 73 396 74
17 397 72 385
18 397 382 396
19 382 397 385
20 398 41 387
21 41 398 40
22 402 34 386
23 38 405 37
24 406 100 389
25 43 406 389
26 388 392 15
27 70 388 71
28 392 388 70
29 71 388 385
30 34 402 33
31 16 17 385
32 17 382 385
33 27 28 390
34 31 32 395
35 395 407 31
36 407 30 31
37 400 395 384
38 400 393 395
39 400 402 383
40 402 400 384
41 33 402 384
42 406 43 44
43 100 406 101
44 395 393 407
45 407 399 30
46 73 72 397
47 396 73 397
48 408 87 86
49 408 417 410
50 417 394 410
51 401 84 83
52 393 410 407
53 399 410 394
54 410 399 407
55 412 390 28
56 28 29 412
57 412 399 394
58 92 415 93
59 417 408 86
60 86 85 417
61 88 87 418
62 87 408 418
63 406 419 101
64 424 418 393
65 85 84 403
66 85 403 417
67 417 403 394
68 84 401 403
69 91 90 411
70 419 44 45
71 44 419 406
72 29 30 399
73 412 29 399
74 414 421 415
75 424 400 383
76 400 424 393
77 98 430 387
78 430 398 387
79 414 432 421
80 433 421 432
81 36 433 432
82 421 433 405
83 35 414 386
84 432 414 35
85 36 432 35
86 102 101 419
87 98 97 430
88 36 37 433
89 37 405 433
90 90 434 411
91 383 434 424
92 434 383 411
93 97 437 430
94 83 82 401
95 435 403 401
96 437 97 96
97 398 430 437
98 79 78 422
99 414 442 386
100 448 425 422
101 448 22 23
102 416 448 422
103 95 94 443
104 452 13 14
105 69 68 452
106 392 452 14
107 69 452 392
108 457 27 390
109 435 457 390
110 458 80 404
111 80 458 81
112 458 438 81
113 416 427 413
114 421 405 443
115 423 60 61
116 25 463 24
117 463 425 24
118 464 93 415
119 421 464 415
120 425 23 24
121 23 425 448
122 413 448 416
123 448 413 22
124 404 463 458
125 463 404 425
126 465 401 82
127 464 94 93
128 94 464 443
129 464 421 443
130 401 465 435
131 457 465 438
132 465 457 435
133 466 411 442
134 1 467 3
135 467 68 3
136 404 79 422
137 404 80 79
138 425 404 422
139 412 435 390
140 428 115 114
141 467 1 13
142 91 411 466
143 466 415 92
144 91 466 92
145 449 413 427
146 416 78 77
147 416 422 78
148 468 111 446
149 409 443 405
150 19 20 391
151 427 76 449
152 13 452 467
153 452 68 467
154 457 26 27
155 427 77 76
156 416 77 427
157 74 469 75
158 469 74 396
159 470 26 457
160 438 470 457
161 410 418 408
162 418 410 393
163 112 111 468
164 39 456 38
165 82 438 465
166 438 82 81
167 434 90 89
168 424 434 89
169 469 396 391
170 470 25 26
171 470 438 458
172 25 470 463
173 470 458 463
174 471 112 468
175 20 472 391
176 472 469 391
177 409 95 443
178 471 113 112
179 113 450 114
180 472 20 21
181 472 449 469
182 473 382 18
183 473 391 396
184 382 473 396
185 19 473 18
186 19 391 473
187 437 409 456
188 474 429 459
189 429 474 460
190 462 468 431
191 21 413 472
192 22 413 21
193 413 449 472
194 446 111 110
195 75 449 76
196 449 75 469
197 398 476 40
198 456 476 437
199 476 398 437
200 49 50 451
201 450 113 471
202 54 441 53
203 63 477 62
204 38 456 405
205 456 409 405
206 39 40 476
207 456 39 476
208 439 429 454
209 429 439 459
210 95 437 96
211 437 95 409
212 426 420 475
213 455 480 477
214 63 64 455
215 477 63 455
216 442 411 383
217 114 450 428
218 475 479 426
219 468 446 431
220 104 484 105
221 51 451 50
222 439 451 51
223 481 454 429
224 429 460 481
225 446 110 460
226 483 122 121
227 455 64 483
228 483 64 65
229 121 120 483
230 67 124 123
231 107 453 108
232 106 105 484
233 486 47 48
234 487 454 453
235 487 478 451
236 402 442 383
237 442 402 386
238 415 442 414
239 442 415 466
240 47 486 488
241 488 486 485
242 88 424 89
243 424 88 418
244 445 104 103
245 53 459 52
246 474 459 53
247 435 394 403
248 435 412 394
249 483 480 455
250 480 483 120
251 67 123 66
252 56 461 440
253 482 423 436
254 120 119 480
255 124 2 4
256 2 124 67
257 52 439 51
258 459 439 52
259 55 440 447
260 482 444 426
261 441 474 53
262 49 486 48
263 426 428 420
264 426 444 428
265 122 66 123
266 122 65 66
267 483 65 122
268 106 485 478
269 484 485 106
270 450 420 428
271 482 479 423
272 426 479 482
273 488 104 445
274 488 484 104
275 485 484 488
276 487 453 478
277 447 54 55
278 441 54 447
279 115 444 116
280 115 428 444
281 436 423 61
282 481 110 109
283 460 110 481
284 475 57 58
285 475 420 57
286 117 436 118
287 482 436 117
288 478 107 106
289 453 107 478
290 439 487 451
291 439 454 487
292 56 440 55
293 440 468 462
294 462 440 447
295 447 462 431
296 471 420 450
297 461 420 471
298 479 58 59
299 475 58 479
300 423 59 60
301 423 479 59
302 451 486 49
303 481 109 454
304 460 431 446
305 474 431 460
306 485 451 478
307 485 486 451
308 47 445 46
309 488 445 47
310 461 468 440
311 461 471 468
312 420 56 57
313 461 56 420
314 477 61 62
315 477 436 61
316 46 419 45
317 445 419 46
318 419 103 102
319 419 445 103
320 474 447 431
321 474 441 447
322 118 480 119
323 453 109 108
324 453 454 109
325 116 482 117
326 116 444 482
327 436 480 118
328 436 477 480
329 184 380 6
330 77 78 490
331 81 491 80
332 492 71 72
333 133 496 134
334 76 498 75
335 495 129 492
336 183 182 489
337 129 128 492
338 492 499 71
339 498 76 496
340 76 77 496
341 77 490 496
342 499 492 128
343 72 73 495
344 492 72 495
345 503 129 495
346 183 506 184
347 506 183 489
348 182 509 489
349 510 489 509
350 502 111 112
351 495 73 503
352 130 129 503
353 131 130 503
354 506 380 184
355 181 509 182
356 70 71 499
357 127 126 512
358 513 139 138
359 128 127 499
360 515 134 496
361 515 490 511
362 490 515 496
363 521 503 73
364 74 521 73
365 522 510 123
366 510 522 489
367 509 504 510
368 69 70 512
369 127 512 499
370 512 70 499
371 157 156 494
372 517 514 98
373 97 98 514
374 160 159 507
375 496 133 498
376 123 124 522
377 489 522 506
378 181 180 504
379 509 181 504
380 510 122 123
381 137 136 524
382 136 135 511
383 524 136 511
384 135 134 515
385 511 135 515
386 79 525 78
387 79 80 525
388 525 524 511
389 501 526 494
390 526 514 494
391 172 527 173
392 491 528 524
393 528 137 524
394 153 532 154
395 533 518 527
396 160 534 161
397 534 508 161
398 535 177 176
399 510 538 122
400 538 510 504
401 98 99 517
402 75 521 74
403 521 131 503
404 164 163 523
405 514 526 97
406 138 137 528
407 513 138 528
408 497 178 177
409 497 539 178
410 529 157 494
411 529 514 517
412 514 529 494
413 529 517 519
414 159 158 519
415 507 159 519
416 101 530 100
417 530 507 519
418 170 169 531
419 158 157 529
420 519 158 529
421 507 534 160
422 534 507 530
423 535 497 177
424 497 535 520
425 536 117 118
426 520 536 118
427 538 121 122
428 133 132 498
429 174 173 518
430 173 527 518
431 176 541 535
432 517 544 519
433 544 530 519
434 502 545 531
435 547 508 534
436 530 547 534
437 548 533 527
438 551 121 538
439 552 539 551
440 538 552 551
441 554 132 131
442 521 554 131
443 172 556 527
444 556 172 171
445 526 96 97
446 178 539 179
447 541 176 175
448 541 543 536
449 116 117 536
450 544 517 99
451 171 170 545
452 170 531 545
453 546 105 106
454 547 530 101
455 169 168 537
456 531 169 537
457 114 115 533
458 549 533 115
459 549 518 533
460 518 549 543
461 551 120 121
462 520 553 497
463 553 539 497
464 539 553 551
465 555 139 513
466 555 140 139
467 556 548 527
468 545 502 556
469 171 545 556
470 523 557 546
471 175 560 541
472 560 543 541
473 501 156 155
474 494 156 501
475 116 549 115
476 542 561 84
477 548 113 114
478 566 113 548
479 533 548 114
480 556 566 548
481 552 504 180
482 504 552 538
483 180 179 552
484 179 539 552
485 554 75 498
486 75 554 521
487 132 554 498
488 107 108 500
489 558 110 111
490 558 531 537
491 126 125 559
492 68 69 559
493 512 126 559
494 69 512 559
495 85 542 84
496 560 174 518
497 174 560 175
498 543 560 518
499 99 100 544
500 100 530 544
501 564 166 165
502 104 105 557
503 105 546 557
504 101 102 547
505 163 565 523
506 557 523 565
507 119 120 553
508 120 551 553
509 566 112 113
510 112 566 502
511 566 556 502
512 574 144 143
513 572 528 491
514 513 528 572
515 555 513 572
516 572 573 555
517 555 573 540
518 108 109 571
519 167 575 168
520 537 168 575
521 166 575 167
522 162 161 508
523 540 573 561
524 116 543 549
525 543 116 536
526 83 561 573
527 561 83 84
528 564 523 546
529 565 104 557
530 525 490 78
531 525 511 490
532 537 571 558
533 537 575 571
534 576 500 564
535 546 576 564
536 3 577 5
537 577 125 5
538 577 3 68
539 500 576 107
540 526 501 516
541 559 125 577
542 68 559 577
543 155 516 501
544 165 164 523
545 564 165 523
546 106 107 576
547 546 106 576
548 568 93 94
549 580 96 526
550 516 580 526
551 162 581 163
552 581 565 163
553 580 516 578
554 579 532 153
555 152 579 153
556 95 96 580
557 578 95 580
558 508 581 162
559 94 95 578
560 582 103 104
561 582 565 581
562 565 582 104
563 508 582 581
564 573 82 83
565 82 573 572
566 102 583 547
567 508 583 582
568 583 508 547
569 516 155 154
570 102 103 583
571 103 582 583
572 493 89 90
573 144 574 562
574 493 563 89
575 144 562 145
576 522 124 4
577 578 588 94
578 588 578 532
579 588 568 94
580 590 579 152
581 579 588 532
582 579 568 588
583 574 143 142
584 585 574 142
585 542 85 86
586 493 586 587
587 574 589 562
588 589 574 585
589 590 568 579
590 140 591 141
591 141 591 142
592 585 591 540
593 591 585 142
594 592 567 589
595 593 149 148
596 590 595 568
597 597 505 586
598 154 532 516
599 532 578 516
600 590 152 151
601 569 562 589
602 567 569 589
603 592 561 542
604 592 540 561
605 540 592 585
606 589 585 592
607 550 594 563
608 81 572 491
609 572 81 82
610 591 555 540
611 555 591 140
612 506 4 380
613 4 506 522
614 493 587 563
615 587 550 563
616 520 119 553
617 119 520 118
618 500 571 575
619 571 500 108
620 520 541 536
621 541 520 535
622 500 166 564
623 166 500 575
624 110 571 109
625 110 558 571
626 567 570 569
627 584 570 567
628 586 493 596
629 596 90 91
630 493 90 596
631 595 91 92
632 595 596 91
633 87 567 86
634 87 584 567
635 89 594 88
636 89 563 594
637 149 505 150
638 593 505 149
639 505 587 586
640 593 587 505
641 584 550 570
642 584 594 550
643 145 569 146
644 145 562 569
645 524 80 491
646 524 525 80
647 502 558 111
648 502 531 558
649 596 597 586
650 150 505 597
651 88 584 87
652 594 584 88
653 593 550 587
654 86 592 542
655 86 567 592
656 568 92 93
657 568 595 92
658 597 595 590
659 596 595 597
660 150 590 151
661 597 590 150
662 570 550 147
663 147 593 148
664 550 593 147
665 146 570 147
666 146 569 570
667 602 7 5
668 125 602 5
669 208 599 209
670 128 129 598
671 603 127 128
672 7 602 185
673 197 196 604
674 599 208 207
675 188 187 603
676 130 598 129
677 605 154 155
678 605 609 154
679 598 190 189
680 609 153 154
681 609 605 610
682 606 610 215
683 612 190 598
684 130 612 598
685 131 612 130
686 612 191 190
687 191 600 192
688 606 609 610
689 153 606 152
690 609 606 153
691 615 185 602
692 610 216 215
693 610 605 216
694 214 213 608
695 606 215 214
696 611 142 143
697 181 182 613
698 615 186 185
699 615 187 186
700 156 616 155
701 616 605 155
702 617 247 246
703 618 156 157
704 618 616 156
705 598 619 128
706 619 603 128
707 619 598 189
708 620 196 195
709 196 620 604
710 626 603 187
711 615 626 187
712 627 617 607
713 157 630 618
714 600 191 612
715 132 600 131
716 131 600 612
717 189 188 619
718 188 603 619
719 630 157 158
720 125 126 615
721 602 125 615
722 136 137 604
723 218 217 616
724 161 162 614
725 626 615 126
726 217 216 605
727 616 217 605
728 139 601 138
729 627 6 381
730 6 627 184
731 628 132 133
732 628 600 132
733 600 628 192
734 193 192 628
735 225 224 624
736 133 134 628
737 220 219 630
738 631 618 630
739 618 631 616
740 219 631 630
741 633 625 227
742 134 635 628
743 635 193 628
744 225 624 622
745 226 225 622
746 226 633 227
747 163 164 622
748 625 228 227
749 219 218 631
750 218 616 631
751 622 633 226
752 135 136 620
753 136 604 620
754 634 613 182
755 183 634 182
756 126 127 626
757 127 603 626
758 135 635 134
759 635 194 193
760 635 195 194
761 635 135 620
762 195 635 620
763 638 142 611
764 636 211 210
765 638 141 142
766 162 624 614
767 222 645 223
768 645 614 223
769 146 147 632
770 624 163 622
771 624 162 163
772 148 641 147
773 632 641 599
774 632 147 641
775 607 642 634
776 244 642 245
777 642 244 243
778 642 613 634
779 613 642 243
780 239 643 240
781 235 234 637
782 149 636 640
783 202 201 646
784 604 647 197
785 647 604 137
786 166 648 625
787 648 166 167
788 654 209 599
789 641 654 599
790 658 173 174
791 138 647 137
792 138 601 647
793 210 640 636
794 641 148 640
795 607 245 642
796 614 645 161
797 645 160 161
798 224 223 614
799 624 224 614
800 651 212 211
801 207 206 649
802 650 204 203
803 651 149 150
804 636 149 651
805 211 636 651
806 167 168 648
807 168 621 648
808 171 172 652
809 148 149 640
810 653 169 170
811 209 654 210
812 654 640 210
813 640 654 641
814 236 235 655
815 235 637 655
816 655 658 174
817 232 231 623
818 160 656 159
819 205 204 650
820 657 181 613
821 181 657 180
822 242 241 644
823 173 658 172
824 658 655 637
825 246 607 617
826 607 246 245
827 644 657 242
828 180 644 179
829 180 657 644
830 659 648 621
831 660 141 638
832 646 660 638
833 638 662 646
834 653 664 621
835 645 665 160
836 665 656 160
837 665 645 222
838 141 660 140
839 629 660 646
840 145 146 632
841 632 661 145
842 661 599 207
843 599 661 632
844 649 661 207
845 203 662 650
846 611 662 638
847 662 611 650
848 203 202 662
849 202 646 662
850 168 169 621
851 169 653 621
852 664 231 230
853 231 664 623
854 664 653 623
855 222 221 665
856 150 151 663
857 651 150 663
858 608 606 214
859 659 228 625
860 228 659 229
861 648 659 625
862 199 629 200
863 666 629 199
864 601 666 199
865 198 601 199
866 652 658 637
867 658 652 172
868 201 629 646
869 629 201 200
870 666 139 140
871 139 666 601
872 667 649 206
873 667 650 611
874 238 237 639
875 184 668 183
876 607 668 627
877 668 184 627
878 668 634 183
879 607 634 668
880 649 145 661
881 144 649 667
882 649 144 145
883 647 198 197
884 198 647 601
885 669 236 655
886 237 236 669
887 639 237 669
888 670 644 241
889 206 205 667
890 205 650 667
891 671 669 175
892 669 671 639
893 176 671 175
894 171 672 170
895 673 239 238
896 672 653 170
897 623 653 672
898 617 381 8
899 617 627 381
900 247 617 8
901 174 175 669
902 655 174 669
903 652 672 171
904 621 664 230
905 639 673 238
906 673 639 671
907 656 665 221
908 241 240 670
909 240 643 670
910 672 674 623
911 674 672 652
912 164 633 622
913 633 164 165
914 229 621 230
915 621 229 659
916 176 673 671
917 673 176 177
918 220 656 221
919 152 608 151
920 608 152 606
921 608 663 151
922 611 144 667
923 144 611 143
924 234 652 637
925 652 234 233
926 674 652 233
927 656 158 159
928 233 232 674
929 232 623 674
930 608 212 663
931 212 608 213
932 651 663 212
933 643 177 178
934 179 643 178
935 643 179 670
936 644 670 179
937 656 220 630
938 158 656 630
939 657 243 242
940 243 657 613
941 643 673 177
942 673 643 239
943 166 633 165
944 625 633 166
945 660 666 140
946 629 666 660
947 309 245 310
948 245 246 310
949 310 246 311
950 260 675 261
951 675 198 199
952 676 299 298
953 235 676 234
954 196 679 195
955 678 230 231
956 199 200 677
957 296 680 297
958 677 681 199
959 681 675 199
960 675 681 261
961 681 262 261
962 262 681 677
963 680 683 232
964 678 683 295
965 677 263 262
966 300 299 682
967 299 676 682
968 235 236 682
969 676 235 682
970 684 200 201
971 200 684 677
972 258 257 679
973 233 680 232
974 686 260 259
975 263 677 684
976 231 232 683
977 678 231 683
978 296 295 683
979 680 296 683
980 686 679 196
981 197 686 196
982 686 675 260
983 687 297 680
984 233 687 680
985 257 688 679
986 688 195 679
987 298 687 676
988 687 298 297
989 233 234 687
990 234 676 687
991 256 688 257
992 195 688 194
993 259 258 679
994 686 259 679
995 197 675 686
996 675 197 198
997 286 285 691
998 286 696 287
999 699 290 289
1000 693 249 248
1001 691 696 286
1002 254 253 692
1003 190 191 692
1004 226 699 225
1005 222 223 696
1006 289 703 699
1007 703 225 699
1008 185 186 693
1009 704 693 186
1010 193 194 688
1011 703 289 288
1012 703 224 225
1013 265 264 689
1014 252 251 698
1015 188 189 698
1016 250 249 704
1017 249 693 704
1018 254 705 255
1019 705 191 192
1020 705 254 692
1021 191 705 692
1022 223 710 696
1023 256 712 688
1024 712 193 688
1025 709 302 301
1026 288 710 703
1027 710 224 703
1028 224 710 223
1029 186 187 704
1030 255 712 256
1031 712 255 705
1032 192 193 712
1033 705 192 712
1034 714 226 227
1035 226 714 699
1036 693 7 185
1037 718 189 190
1038 189 718 698
1039 252 718 253
1040 718 252 698
1041 210 211 713
1042 720 275 274
1043 287 710 288
1044 696 710 287
1045 684 264 263
1046 689 264 684
1047 693 9 7
1048 693 248 9
1049 236 721 682
1050 275 720 713
1051 301 721 709
1052 721 237 709
1053 237 721 236
1054 301 300 721
1055 300 682 721
1056 206 708 697
1057 722 187 188
1058 187 722 704
1059 250 722 251
1060 722 250 704
1061 227 228 694
1062 190 692 718
1063 692 253 718
1064 720 210 713
1065 294 723 678
1066 678 295 294
1067 209 719 208
1068 720 719 209
1069 210 720 209
1070 294 293 723
1071 690 208 719
1072 188 698 722
1073 698 251 722
1074 229 678 723
1075 678 229 230
1076 719 274 273
1077 274 719 720
1078 724 697 708
1079 697 724 707
1080 290 714 291
1081 290 699 714
1082 724 271 270
1083 708 271 724
1084 275 711 276
1085 713 711 275
1086 206 697 205
1087 708 272 271
1088 272 708 690
1089 215 216 702
1090 205 697 707
1091 702 216 685
1092 222 691 221
1093 691 222 696
1094 206 207 708
1095 207 690 708
1096 208 690 207
1097 265 725 266
1098 725 265 689
1099 707 724 270
1100 212 717 211
1101 716 717 212
1102 717 716 711
1103 714 227 694
1104 726 202 203
1105 717 713 211
1106 711 713 717
1107 702 685 701
1108 726 725 689
1109 689 201 202
1110 201 689 684
1111 726 689 202
1112 709 237 238
1113 267 728 268
1114 706 728 726
1115 728 706 268
1116 728 266 725
1117 266 728 267
1118 726 728 725
1119 203 706 726
1120 729 303 302
1121 729 238 239
1122 221 731 220
1123 203 204 706
1124 731 691 285
1125 691 731 221
1126 268 706 269
1127 706 695 269
1128 204 695 706
1129 302 709 729
1130 709 238 729
1131 214 715 213
1132 293 694 723
1133 694 293 292
1134 306 241 242
1135 241 306 305
1136 694 229 723
1137 229 694 228
1138 714 292 291
1139 292 714 694
1140 239 303 729
1141 244 309 308
1142 309 244 245
1143 307 242 243
1144 242 307 306
1145 312 8 10
1146 247 8 312
1147 243 308 307
1148 308 243 244
1149 247 311 246
1150 311 247 312
1151 305 240 241
1152 304 240 305
1153 304 239 240
1154 303 239 304
1155 279 701 280
1156 205 695 204
1157 205 707 695
1158 690 273 272
1159 719 273 690
1160 695 270 269
1161 695 707 270
1162 280 685 281
1163 280 701 685
1164 700 216 217
1165 685 216 700
1166 730 217 218
1167 700 217 730
1168 283 727 284
1169 283 730 727
1170 281 700 282
1171 281 685 700
1172 282 730 283
1173 282 700 730
1174 284 731 285
1175 284 727 731
1176 727 218 219
1177 730 218 727
1178 731 219 220
1179 727 219 731
1180 214 215 702
1181 702 701 214
1182 277 715 278
1183 277 716 715
1184 715 212 213
1185 715 716 212
1186 276 716 277
1187 276 711 716
1188 278 701 279
1189 715 701 278
1190 715 214 701
1191 308 374 307
1192 374 373 307
1193 351 737 352
1194 740 366 365
1195 740 299 300
1196 346 735 347
1197 739 733 344
1198 343 739 344
1199 278 279 733
1200 285 286 737
1201 280 281 735
1202 341 738 342
1203 274 275 738
1204 741 346 345
1205 733 741 345
1206 345 344 733
1207 741 733 279
1208 741 735 346
1209 738 742 274
1210 279 280 741
1211 280 735 741
1212 341 340 742
1213 738 341 742
1214 276 277 739
1215 739 743 276
1216 738 743 342
1217 277 278 733
1218 739 277 733
1219 343 342 743
1220 739 343 743
1221 745 735 281
1222 735 745 347
1223 273 274 742
1224 275 276 743
1225 738 275 743
1226 348 347 745
1227 9 746 11
1228 746 313 11
1229 748 250 251
1230 745 281 282
1231 282 749 745
1232 745 349 348
1233 749 349 745
1234 248 746 9
1235 315 748 316
1236 749 350 349
1237 282 283 749
1238 753 350 749
1239 748 760 250
1240 760 748 315
1241 744 266 267
1242 314 760 315
1243 271 272 747
1244 320 756 321
1245 753 284 285
1246 753 351 350
1247 262 754 261
1248 318 755 319
1249 755 253 254
1250 756 255 256
1251 340 339 742
1252 330 761 331
1253 249 250 760
1254 283 284 753
1255 749 283 753
1256 365 299 740
1257 373 306 307
1258 298 758 297
1259 764 740 300
1260 742 765 273
1261 765 742 339
1262 314 766 760
1263 766 249 760
1264 254 767 755
1265 767 319 755
1266 768 316 748
1267 251 768 748
1268 770 252 253
1269 771 298 299
1270 365 771 299
1271 265 266 761
1272 266 744 761
1273 248 766 746
1274 766 248 249
1275 746 314 313
1276 314 746 766
1277 254 255 767
1278 255 756 767
1279 768 317 316
1280 768 251 252
1281 264 265 769
1282 317 770 318
1283 770 317 768
1284 252 770 768
1285 298 771 758
1286 771 364 758
1287 364 771 365
1288 755 318 770
1289 253 755 770
1290 772 769 329
1291 328 772 329
1292 329 769 330
1293 769 761 330
1294 263 264 772
1295 264 769 772
1296 761 769 265
1297 773 737 286
1298 353 352 737
1299 737 773 353
1300 272 273 765
1301 747 272 765
1302 288 734 287
1303 286 287 773
1304 287 734 773
1305 759 261 754
1306 355 354 734
1307 375 374 308
1308 762 267 268
1309 297 758 751
1310 764 300 301
1311 754 327 326
1312 763 334 333
1313 370 774 371
1314 762 752 763
1315 773 354 353
1316 734 354 773
1317 338 765 339
1318 338 747 765
1319 762 744 267
1320 763 744 762
1321 775 271 747
1322 778 327 754
1323 292 293 736
1324 778 263 772
1325 778 328 327
1326 328 778 772
1327 779 335 334
1328 783 288 289
1329 288 783 734
1330 370 732 774
1331 270 271 775
1332 259 260 780
1333 373 372 306
1334 783 356 355
1335 783 784 356
1336 734 783 355
1337 289 290 783
1338 784 783 290
1339 357 356 784
1340 777 357 784
1341 358 357 777
1342 306 774 305
1343 256 321 756
1344 319 756 320
1345 756 319 767
1346 333 332 744
1347 763 333 744
1348 309 375 308
1349 309 376 375
1350 312 378 311
1351 378 312 379
1352 379 10 12
1353 10 379 312
1354 377 311 378
1355 377 310 311
1356 737 753 285
1357 753 737 351
1358 779 336 335
1359 323 258 259
1360 368 776 369
1361 368 750 776
1362 369 732 370
1363 369 776 732
1364 259 324 323
1365 780 324 259
1366 774 304 305
1367 775 337 336
1368 292 777 291
1369 292 736 777
1370 371 306 372
1371 371 774 306
1372 776 750 302
1373 780 325 324
1374 759 325 780
1375 367 750 368
1376 367 764 750
1377 258 322 257
1378 323 322 258
1379 750 301 302
1380 764 301 750
1381 257 321 256
1382 257 322 321
1383 759 326 325
1384 754 326 759
1385 761 332 331
1386 761 744 332
1387 310 376 309
1388 377 376 310
1389 757 363 362
1390 757 751 363
1391 751 364 363
1392 758 364 751
1393 782 362 361
1394 782 757 362
1395 763 779 334
1396 763 752 779
1397 778 262 263
1398 754 262 778
1399 762 268 752
1400 296 782 295
1401 296 757 782
1402 261 780 260
1403 261 759 780
1404 366 764 367
1405 366 740 764
1406 774 303 304
1407 732 303 774
1408 297 757 296
1409 297 751 757
1410 779 268 269
1411 779 752 268
1412 337 747 338
1413 337 775 747
1414 777 359 358
1415 777 736 359
1416 732 302 303
1417 732 776 302
1418 291 784 290
1419 291 777 784
1420 736 360 359
1421 736 781 360
1422 781 361 360
1423 781 782 361
1424 336 779 775
1425 775 269 270
1426 779 269 775
1427 294 736 293
1428 781 736 294
1429 295 781 294
1430 295 782 781
$EndElements
